<?xml version="1.0" encoding="UTF-8"?>
<svg width="400px" height="267px" viewBox="0 0 400 267" version="1.1" xmlns="http://www.w3.org/2000/svg" xmlns:xlink="http://www.w3.org/1999/xlink">
    <title>clear_channel</title>
    <g id="Page-1" stroke="none" stroke-width="1" fill="none" fill-rule="evenodd">
        <g id="clear_channel" transform="translate(-0.004718, 0.000000)" fill="#FFFFFF" fill-rule="nonzero">
            <path d="M264.254718,1.42108547e-14 C266.154718,0.37 268.064718,0.68 269.944718,1.14 C278.854718,3.32 283.944718,9.4 284.104718,18.51 C284.274718,26.76 284.174718,35.02 284.104718,43.27 C284.073989,43.9525451 283.775829,44.595565 283.274718,45.06 C260.624718,63.36 236.834718,79.83 209.144718,89.83 C197.584718,94.01 185.714718,96.67 173.324718,95.93 C164.714718,95.43 156.634718,93.23 150.144718,87.16 C144.044718,81.47 141.594718,74.28 142.364718,66.04 C143.544718,53.41 150.364718,43.79 159.184718,35.33 C168.504718,26.33 179.694718,20.4 191.394718,15.24 C205.900041,8.73198165 221.202913,4.1723918 236.904718,1.68 C241.014718,1.06 245.164718,0.8 249.294718,0.36 C249.994718,0.28 250.684718,0.12 251.374718,1.42108547e-14 L264.254718,1.42108547e-14 Z" id="Path"></path>
            <path d="M189.714718,1.42108547e-14 C183.014718,2.73 176.214718,5.25 169.634718,8.24 C157.772796,13.4349128 146.893881,20.633399 137.474718,29.52 C127.359048,39.0527427 120.139003,51.2467496 116.644718,64.7 C116.554718,65.07 116.374718,65.41 116.054718,66.24 C116.054718,65.14 115.954718,64.5 115.954718,63.86 C115.954718,47.94 116.254718,32.01 115.824718,16.1 C115.604718,8.1 122.434718,1.78 128.194718,0.4 C128.535616,0.286417432 128.869528,0.152852777 129.194718,1.42108547e-14 L189.714718,1.42108547e-14 Z" id="Path"></path>
            <polygon id="Path" points="399.664718 200.09 392.514718 200.09 392.514718 154.46 399.664718 154.46"></polygon>
            <path d="M116.004718,94.22 C118.314718,97.33 120.404718,100.6 122.934718,103.49 C130.634718,112.27 140.654718,116.81 152.014718,118.55 C169.014718,121.16 185.464718,118.08 201.604718,112.91 C224.804718,105.48 245.994718,93.91 266.194718,80.52 C272.194718,76.52 278.004718,72.32 284.074718,68.09 C284.074718,68.86 284.164718,69.54 284.164718,70.21 C284.164718,86.33 283.894718,102.45 284.284718,118.56 C284.464718,126.08 277.534718,132.56 271.824718,133.75 C270.621945,134.011445 269.395527,134.14883 268.164718,134.16 C222.784718,134.16 177.401385,134.16 132.014718,134.16 C124.634718,134.16 117.734718,128.79 116.164718,121.88 C116.038434,121.311796 115.971409,120.732029 115.963127,120.15 C115.963127,111.77 115.963127,103.386667 115.963127,95 C115.954718,94.72 115.994718,94.42 116.004718,94.22 L116.004718,94.22 Z" id="Path"></path>
            <path d="M42.4247181,163.83 L35.7047181,167.36 C33.8094625,164.257744 30.7772885,162.0186 27.2547181,161.12 C23.1207243,160.175171 18.7800581,160.979134 15.2586794,163.341865 C11.7373007,165.704597 9.34771262,169.416417 8.6547181,173.6 C7.5747181,180.38 9.0947181,186.35 14.6547181,190.6 C21.0447181,195.51 30.0447181,194.78 35.0147181,187.94 C35.1947181,187.69 35.4147181,187.45 35.7147181,187.1 L42.3047181,190.37 C39.8347181,197.18 29.6247181,202.09 20.8347181,200.83 C9.0147181,199.04 0.834718099,190.72 0.0747180994,179.54 C-0.775281901,167.54 5.6847181,157.71 16.5047181,154.54 C27.0847181,151.41 37.5947181,155.11 42.4247181,163.83 L42.4247181,163.83 Z" id="Path"></path>
            <path d="M201.704718,187.12 L208.324718,190.44 C203.724718,198.63 195.114718,202.39 184.614718,200.44 C174.088404,198.440125 166.337376,189.436657 165.924718,178.73 C165.384718,167.14 171.814718,157.73 182.424718,154.54 C193.034718,151.35 203.244718,155.01 208.364718,163.78 L201.634718,167.35 C199.722686,164.2906 196.726319,162.065646 193.244718,161.12 C189.0592,160.13959 184.654385,160.955634 181.097854,163.370351 C177.541324,165.785068 175.157709,169.578048 174.524718,173.83 C173.524718,180.83 175.224718,186.9 181.314718,191.08 C188.004718,195.68 196.044718,194.29 200.994718,187.86 C201.194718,187.65 201.424718,187.43 201.704718,187.12 L201.704718,187.12 Z" id="Path"></path>
            <path d="M120.654718,199.94 L120.654718,196.53 C118.434718,197.8 116.324718,199.53 113.914718,200.31 C107.537266,202.446705 100.563981,199.524771 97.6147181,193.48 C94.400418,187.334557 94.3557138,180.014242 97.4947181,173.83 C101.764718,165.09 112.794718,163.4 119.714718,170.24 C119.89218,170.509916 120.023945,170.807233 120.104718,171.12 L120.604718,170.79 L120.604718,167.07 L127.934718,167.07 L127.934718,199.95 L120.654718,199.94 Z M120.654718,183.49 C120.654718,181.67 120.704718,179.85 120.654718,178.03 C120.668661,177.398935 120.483195,176.77955 120.124718,176.26 C118.051961,173.6806 114.845227,172.282792 111.544718,172.52 C108.126641,172.65387 105.122767,174.825963 103.924718,178.03 C102.475424,181.335128 102.403445,185.081643 103.724718,188.44 C105.19352,192.910512 109.900799,195.452969 114.444718,194.23 C118.774718,193.23 120.674718,190.94 120.674718,186.61 L120.654718,183.49 Z" id="Shape"></path>
            <path d="M272.044718,170.99 L272.044718,167.07 L279.364718,167.07 L279.364718,199.94 L272.184718,199.94 C272.134718,198.75 272.074718,197.57 272.034718,196.63 C269.804718,197.9 267.714718,199.54 265.344718,200.33 C259.022941,202.414995 252.128209,199.550702 249.144718,193.6 C245.825662,187.350812 245.80695,179.865705 249.094718,173.6 C251.05185,169.657297 254.788972,166.899288 259.133414,166.191407 C263.477856,165.483527 267.897206,166.912526 271.004718,170.03 C271.254718,170.26 271.524718,170.5 272.044718,170.99 L272.044718,170.99 Z M272.094718,183.53 C272.094718,181.65 272.154718,179.77 272.094718,177.89 C272.084434,177.192429 271.837633,176.519015 271.394718,175.98 C268.504718,173.08 265.034718,171.7 260.974718,172.92 C257.084718,174.09 255.254718,177.12 254.534718,180.92 C254.429768,181.494466 254.369587,182.076215 254.354718,182.66 C254.294718,187.09 255.254718,191.08 259.474718,193.44 C262.844718,195.32 267.144718,194.61 270.524718,191.87 C271.657734,191.085795 272.2806,189.752172 272.154718,188.38 C272.014718,186.83 272.094718,185.16 272.094718,183.53 L272.094718,183.53 Z" id="Shape"></path>
            <path d="M212.834718,154.37 L219.834718,154.37 L219.834718,171.14 C222.544718,168.62 225.244718,166.75 228.524718,166.44 C231.081054,166.129335 233.671682,166.257851 236.184718,166.82 C240.704718,168 242.184718,171.76 242.284718,175.97 C242.444718,183.82 242.284718,191.68 242.284718,199.54 C242.284718,199.65 242.184718,199.77 242.084718,199.99 L234.974718,199.99 L234.974718,197.89 C234.974718,191.89 234.754718,185.89 235.024718,179.96 C235.354718,172.68 229.934718,171.47 225.114718,173.12 C224.26979,173.444994 223.456394,173.84667 222.684718,174.32 C220.660729,175.301916 219.463298,177.441325 219.684718,179.68 C219.904718,185.68 219.754718,191.76 219.754718,197.8 L219.754718,199.99 L212.754718,199.99 L212.834718,154.37 Z" id="Path"></path>
            <path d="M91.7747181,185.92 L66.2247181,185.92 C66.4847181,193.05 75.7547181,199.05 86.1247181,191.41 C87.1847181,192.93 88.2547181,194.41 89.3547181,196.01 C86.5756104,198.632546 83.01411,200.272803 79.2147181,200.68 C72.0547181,201.59 65.6847181,200.01 61.3947181,193.68 C55.3047181,184.73 58.3947181,168.91 72.0447181,166.38 C82.3847181,164.47 90.0447181,170.71 91.3647181,180.67 C91.5947181,182.35 91.6347181,184.02 91.7747181,185.92 L91.7747181,185.92 Z M84.5047181,180.51 C83.9447181,174.89 79.9647181,171.61 74.3647181,172.03 C69.7947181,172.37 66.0847181,176.24 66.2347181,180.51 L84.5047181,180.51 Z" id="Shape"></path>
            <path d="M387.574718,185.99 L362.284718,185.99 C363.014718,194.89 372.154718,197.35 382.234718,191.45 C383.234718,192.91 384.234718,194.38 385.414718,196 C383.204576,198.144048 380.429789,199.614685 377.414718,200.24 C370.104718,201.84 363.414718,200.95 358.314718,194.85 C350.804718,185.79 354.124718,168.74 368.384718,166.34 C379.184718,164.52 386.544718,171.34 387.544718,181.77 C387.674718,183.05 387.574718,184.36 387.574718,185.99 L387.574718,185.99 Z M362.264718,180.51 L380.494718,180.51 C380.494718,175.67 376.494718,172.03 371.394718,172.00992 C366.294718,171.99 362.314718,175.71 362.264718,180.51 Z" id="Shape"></path>
            <path d="M292.244718,167.06 L292.244718,170.27 C295.074718,168.98 297.794718,167.27 300.764718,166.55 C303.299037,166.055409 305.91135,166.12712 308.414718,166.76 C312.104267,167.673815 314.662121,171.030218 314.564718,174.83 C314.674718,183.15 314.564718,191.47 314.564718,199.95 L307.474718,199.95 L307.474718,197.95 C307.474718,192.1 307.474718,186.25 307.474718,180.4 C307.474718,179.56 307.344718,178.72 307.284718,177.88 C306.964718,173.64 303.774718,172.01 300.184718,172.55 C297.934718,172.89 295.814718,174.28 293.714718,175.35 C292.534718,175.96 292.224718,177.13 292.244718,178.5 C292.304718,185.58 292.244718,192.66 292.244718,199.9 L285.034718,199.9 L285.034718,167.06 L292.244718,167.06 Z" id="Path"></path>
            <path d="M327.834718,200 L320.594718,200 L320.594718,167.09 L327.834718,167.09 L327.834718,170.25 C330.704718,168.97 333.434718,167.25 336.404718,166.56 C338.873004,166.070288 341.418113,166.121463 343.864718,166.71 C347.442146,167.501641 350.007667,170.646473 350.064718,174.31 C350.214718,182.81 350.064718,191.31 350.064718,199.96 L343.064718,199.96 L343.064718,197.96 C343.064718,191.906667 343.064718,185.863333 343.064718,179.83 C343.064718,174.05 339.864718,171.41 334.264718,172.83 C332.434406,173.396689 330.734864,174.32124 329.264718,175.55 C328.454012,176.317428 327.979536,177.374214 327.944718,178.49 C327.824718,184.92 327.884718,191.36 327.884718,197.79 L327.834718,200 Z" id="Path"></path>
            <path d="M109.454718,266.39 C97.7047181,266.39 88.6047181,257.97 87.4547181,246.22 C86.6747181,238.49 88.0647181,231.37 93.4547181,225.61 C99.6547181,219.03 107.504718,217.48 115.994718,219.8 C124.484718,222.12 129.114718,228.04 131.124718,236.28 C132.264208,240.907465 132.164183,245.753496 130.834718,250.33 C128.331601,260.018358 119.456867,266.684787 109.454718,266.39 L109.454718,266.39 Z M91.3047181,243.39 C91.505861,245.329306 91.8163553,247.255706 92.2347181,249.16 C93.9963795,257.132451 101.069962,262.8038 109.234718,262.79 C117.384718,262.94 124.004718,258.05 126.534718,250.01 C127.764251,246.158291 128.004972,242.059146 127.234718,238.09 C125.984718,231.51 122.794718,226.25 116.234718,223.81 C109.674718,221.37 103.654718,222.01 98.2347181,226.36 C93.2047181,230.43 91.5747181,236.16 91.3047181,243.39 L91.3047181,243.39 Z" id="Shape"></path>
            <path d="M213.024718,219.69 L216.604718,219.69 L216.604718,265.43 L213.184718,265.43 L213.184718,260.43 C210.714718,263.27 208.184718,265.13 205.044718,265.93 C198.15372,267.875891 190.916978,264.240166 188.364718,257.55 C185.827732,251.605867 186.05106,244.843787 188.974718,239.08 C190.992346,235.059571 194.826051,232.259829 199.269815,231.561523 C203.713579,230.863217 208.221222,232.352176 211.374718,235.56 C211.834718,236.01 212.284718,236.48 213.024718,237.23 L213.024718,219.69 Z M213.114718,249.09 C213.114718,246.75 213.114718,244.41 213.114718,242.09 C213.150173,241.453801 213.008231,240.820256 212.704718,240.26 C210.214057,236.678587 206.062991,234.621922 201.704718,234.81 C197.765512,234.821585 194.188015,237.109156 192.524718,240.68 C190.637186,244.271074 190.040558,248.40157 190.834718,252.38 C191.684718,257.05 193.704718,260.94 198.524718,262.49 C203.524718,264.08 207.824718,262.55 211.524718,259.09 C212.630487,258.160777 213.209787,256.748032 213.074718,255.31 C213.014718,253.24 213.114718,251.16 213.114718,249.09 Z" id="Shape"></path>
            <path d="M291.294718,248.83 C291.194718,256.47 287.444718,262.75 281.414718,265.22 C276.913752,267.145669 271.774156,266.87468 267.500647,264.48637 C263.227139,262.09806 260.303144,257.862599 259.584718,253.02 C258.584718,247.02 259.394718,241.42 263.434718,236.72 C267.784718,231.65 273.514718,230.49 279.744718,232.16 C285.974718,233.83 289.364718,238.45 290.744718,244.59 C291.054718,245.95 291.114718,247.39 291.294718,248.83 L291.294718,248.83 Z M287.294718,249.38 C287.394615,246.26484 286.625962,243.183302 285.074718,240.48 C283.081691,236.996488 279.405061,234.816215 275.392462,234.73834 C271.379864,234.660465 267.621406,236.696442 265.494718,240.1 C262.139826,245.676009 262.240613,252.672935 265.754718,258.15 C267.878792,261.305035 271.440852,263.187752 275.244199,263.165832 C279.047545,263.143527 282.587473,261.219519 284.674718,258.04 C286.363373,255.454542 287.272852,252.437988 287.294718,249.35 L287.294718,249.38 Z" id="Shape"></path>
            <path d="M222.774718,248.92 C222.884718,240.74 227.254718,234.16 234.024718,232.13 C238.397588,230.732236 243.161885,231.301687 247.082143,233.690684 C251.002401,236.079681 253.692452,240.052895 254.454718,244.58 C255.524718,250.38 254.804718,255.91 251.034718,260.63 C246.774718,265.95 241.034718,267.47 234.574718,265.82 C228.114718,264.17 224.694718,259.47 223.314718,253.16 C223.004718,251.77 222.954718,250.33 222.774718,248.92 L222.774718,248.92 Z M226.774718,248.79 C226.657417,252.117618 227.603133,255.396099 229.474718,258.15 C231.538941,261.175998 234.932521,263.024569 238.594352,263.1177 C242.256182,263.210831 245.739344,261.537155 247.954718,258.62 C251.954718,253.42 252.024718,244.92 248.224718,239.62 C246.056644,236.49347 242.470628,234.655938 238.666507,234.722219 C234.862386,234.7885 231.342559,236.74984 229.284718,239.95 C227.556517,242.583176 226.673806,245.681389 226.754718,248.83 L226.774718,248.79 Z" id="Shape"></path>
            <polygon id="Path" points="47.4147181 154.38 54.5147181 154.38 54.5147181 199.99 47.4147181 199.99"></polygon>
            <path d="M141.264718,200 L133.974718,200 L133.974718,167.07 L140.974718,167.07 L140.974718,171.5 C144.204718,168.42 147.354718,166.07 151.754718,166.15 L151.754718,173.15 C148.615937,172.727085 145.438055,173.572841 142.924718,175.5 C141.787842,176.268469 141.141436,177.580294 141.224718,178.95 C141.314718,185.93 141.264718,192.88 141.264718,200 L141.264718,200 Z" id="Path"></path>
            <path d="M138.904718,232.44 L142.274718,232.44 L142.274718,234.64 L142.274718,254.51 C142.274718,254.51 145.384718,263.8 152.034718,262.92 C155.025732,262.541062 157.789289,261.125667 159.844718,258.92 C160.591229,258.091758 161.032267,257.033266 161.094718,255.92 C161.204718,248.84 161.154718,241.76 161.154718,234.68 L161.154718,232.47 L164.624718,232.47 L164.624718,265.47 L161.254718,265.47 L161.254718,260.88 C160.174718,261.73 159.454718,262.32 158.714718,262.88 C155.908497,265.136882 152.415883,266.368117 148.814718,266.37 C142.484718,266.37 138.944718,263.37 138.724718,257.02 C138.444718,249.02 138.654718,240.92 138.664718,232.87 C138.674718,232.77 138.834718,232.66 138.904718,232.44 L138.904718,232.44 Z" id="Path"></path>
            <path d="M184.994718,261.66 L186.234718,264.16 C183.985108,266.384551 180.627412,267.056876 177.694718,265.87 C174.934718,264.67 174.114718,262.29 174.104718,259.51 C174.104718,252.31 174.104718,245.1 174.104718,237.89 L174.104718,235.57 L168.714718,235.57 L168.714718,232.36 L174.144718,232.36 L174.144718,223.27 L177.714718,223.27 C177.714718,225.7 177.784718,228.13 177.714718,230.56 C177.664718,231.92 178.094718,232.43 179.474718,232.35 C181.084718,232.25 182.694718,232.35 184.474718,232.35 L184.474718,235.52 L177.764718,235.52 L177.764718,257.83 C177.764718,262.98 180.314718,264.41 184.994718,261.66 L184.994718,261.66 Z" id="Path"></path>
            <path d="M297.444718,232.44 L300.904718,232.44 L300.904718,237.71 C304.114718,234.25 307.274718,231.59 312.014718,231.71 L312.014718,235.48 C308.184718,235.2 305.104718,236.73 302.444718,239.31 C301.384648,240.273371 300.809101,241.659082 300.874718,243.09 C300.954718,250.48 300.874718,257.88 300.874718,265.44 L297.404718,265.44 L297.444718,232.44 Z" id="Path"></path>
        </g>
    </g>
</svg>