<?xml version="1.0" encoding="UTF-8"?>
<svg width="400px" height="185px" viewBox="0 0 400 185" version="1.1" xmlns="http://www.w3.org/2000/svg" xmlns:xlink="http://www.w3.org/1999/xlink">
    <title>topps</title>
    <g id="Page-1" stroke="none" stroke-width="1" fill="none" fill-rule="evenodd">
        <g id="topps" transform="translate(0.286000, 0.203000)" fill="#FFFFFF" fill-rule="nonzero">
            <path d="M71.159,0 C71.159,0 65.3,17.368 64.939,17.368 C64.939,17.368 60.787,29.168 46.537,29.168 L11.465,29.168 L0,59.059 L49.641,59.059 C49.3,59.059 12.506,161.113 12.506,161.113 C12.506,161.113 4.516,184.014 24.341,184.014 L118.06,184.014 L128.821,154.502 L63.211,154.502 C63.211,154.502 53.143,153.468 56.622,143.377 L83.365,70.487 C83.365,70.487 87.841,59.058 101.416,59.058 L249.292,59.058 L260.442,29.167 L98.612,29.167 L109.045,0 L71.159,0 L71.159,0 Z" id="Path"></path>
            <path d="M351.551,71.877 C340.787,71.877 335.43,80.868 335.43,80.868 C335.43,80.868 323.24,114.544 319.97,123.615 C316.681,132.604 326.925,133.5 326.925,133.5 L347.218,133.5 C347.218,133.5 340.425,151.719 339.888,153.102 C339.364,154.445 338.559,154.503 338.559,154.503 L270.157,154.503 L259.383,184.015 L347.219,184.015 C359.91,184.015 360.605,177.244 360.605,177.244 C360.605,177.244 381.264,121.011 383.335,115.115 C385.413,109.215 379.351,107.811 379.351,107.811 L358.353,107.811 C356.782,107.811 356.963,106.735 356.963,106.735 C356.963,106.735 360.931,96.001 361.296,94.774 C361.662,93.534 363.209,93.534 363.209,93.534 L390.763,93.699 L399.04,71.877 L351.551,71.877 L351.551,71.877 Z" id="Path"></path>
            <path d="M98.656,115.844 L105.122,97.95 C105.736,96.4 107.527,95.162 109.253,95.162 L125.306,95.162 C127.031,95.162 127.989,96.399 127.411,97.95 L120.927,115.844 C120.38,117.39 118.524,118.649 116.795,118.649 L100.758,118.649 C99.069,118.649 98.104,117.39 98.656,115.844 Z M101.767,71.877 C96.625,71.877 91.128,75.62 89.462,80.215 L70.102,133.66 C68.437,138.297 71.221,141.996 76.367,141.996 L124.318,141.996 C129.412,141.996 134.918,138.297 136.581,133.66 L155.929,80.215 C157.637,75.62 154.784,71.877 149.709,71.877 L101.767,71.877 Z" id="Shape"></path>
            <path d="M274.137,95.163 L291.091,95.163 C292.836,95.163 293.773,96.4 293.245,97.951 L286.717,115.845 C286.166,117.391 284.341,118.65 282.589,118.65 L265.551,118.65 L274.137,95.163 Z M255.72,71.877 L214.928,184.014 L244.25,183.972 L259.73,141.996 L292.553,141.996 C297.638,141.996 303.153,138.297 304.791,133.66 L324.161,80.215 C325.826,75.62 323.05,71.877 317.915,71.877 L255.72,71.877 Z" id="Shape"></path>
            <path d="M191.501,95.163 L208.475,95.163 C210.187,95.163 211.166,96.4 210.593,97.951 L204.061,115.845 C203.558,117.391 201.667,118.65 199.98,118.65 L182.921,118.65 L191.501,95.163 Z M173.089,71.877 L132.294,184.014 L161.657,183.972 L177.08,141.996 L209.88,141.996 C214.988,141.996 220.517,138.297 222.168,133.66 L241.545,80.215 C243.196,75.62 240.407,71.877 235.245,71.877 L173.089,71.877 Z" id="Shape"></path>
        </g>
    </g>
</svg>