<?xml version="1.0" encoding="UTF-8"?>
<svg width="195px" height="37px" viewBox="0 0 195 37" version="1.1" xmlns="http://www.w3.org/2000/svg" xmlns:xlink="http://www.w3.org/1999/xlink">
    <title>university_of_florida</title>
    <g id="Page-1" stroke="none" stroke-width="1" fill="none" fill-rule="evenodd">
        <g id="university_of_florida" transform="translate(0.000000, 0.978752)" fill-rule="nonzero">
            <polygon id="Path" fill="#000000" points="56.07 1.23124783 56.07 35.1112478 57.57 35.1112478 57.57 1.23124783"></polygon>
            <path d="M169.09,10.0212478 C169.22,10.3792478 169.47,10.6802478 169.8,10.8712478 C170.224,11.0972478 170.7,11.2042478 171.18,11.1812478 C171.632999,11.1890785 172.083652,11.1145345 172.51,10.9612478 C172.943194,10.7916444 173.355816,10.573592 173.74,10.3112478 C174.085996,10.0933366 174.402009,9.83111323 174.68,9.53124783 C175.01215,9.09284871 175.262801,8.59832048 175.42,8.07124783 C175.629389,7.45610954 175.737463,6.81104208 175.74,6.16124783 C175.744472,5.84711617 175.704065,5.53395536 175.62,5.23124783 C175.544318,4.96257538 175.411259,4.7135161 175.23,4.50124783 C175.012111,4.27402012 174.740381,4.10547899 174.44,4.01124783 C174.070871,3.88059295 173.681538,3.81626849 173.29,3.82124783 C172.801789,3.81952331 172.318441,3.91823525 171.87,4.11124783 C171.429816,4.29969717 171.016282,4.54512817 170.64,4.84124783 C170.356519,5.05075848 170.095165,5.2886581 169.86,5.55124783 C169.55662,5.97751324 169.333007,6.45523321 169.2,6.96124783 C169.005249,7.57251148 168.904105,8.20972295 168.9,8.85124783 C168.896998,9.25326253 168.964695,9.65267487 169.1,10.0312478 L169.09,10.0212478 Z M170.95,6.55124783 C171.066025,5.9484636 171.319227,5.38046998 171.69,4.89124783 C171.945694,4.6091851 172.309297,4.44919981 172.69,4.45124783 C173.044355,4.43807202 173.385849,4.58495112 173.62,4.85124783 C173.89,5.22424783 174.019,5.68124783 173.98,6.14124783 C173.972864,6.88823497 173.868658,7.63112572 173.67,8.35124783 C173.563824,8.78199505 173.406015,9.19834286 173.2,9.59124783 C173.067161,9.84901528 172.875279,10.0717361 172.64,10.2412478 C172.425236,10.3780457 172.174551,10.4476804 171.92,10.4412478 C171.544313,10.472741 171.175169,10.3287751 170.92,10.0512478 C170.662369,9.67283251 170.542356,9.21748744 170.58,8.76124783 C170.592936,8.0067579 170.703865,7.25714783 170.91,6.53124783 L170.95,6.55124783 Z M177.68,4.83124783 L178.68,4.83124783 L177.62,10.3012478 C177.463815,11.3150697 177.239982,12.3173074 176.95,13.3012478 C176.894215,13.4902181 176.786866,13.6599002 176.64,13.7912478 C176.529122,13.8798718 176.391928,13.929121 176.25,13.9312478 C176.102779,13.9320154 175.960415,13.8786287 175.85,13.7812478 C175.704964,13.6405489 175.592349,13.4699198 175.52,13.2812478 L175.29,13.2812478 C175.24,13.5412478 175.18,13.7912478 175.11,14.0112478 C175.04,14.2312478 174.94,14.5212478 174.81,14.8912478 C174.961,14.9612478 175.124,15.0052478 175.29,15.0212478 C175.543,15.0152478 175.79,14.9462478 176.01,14.8212478 C176.546119,14.5185888 177.02094,14.1183828 177.41,13.6412478 C177.882339,13.0920656 178.257704,12.466456 178.52,11.7912478 C178.92,10.6712478 179.254,9.53024783 179.52,8.37124783 L180.29,4.83124783 L182.16,4.83124783 C182.215091,4.57188023 182.292033,4.31763981 182.39,4.07124783 L182.32,3.95124783 C182.084824,3.98780586 181.847787,4.01117572 181.61,4.02124783 C181.083,4.05424783 180.75,4.05424783 180.61,4.02124783 L180.49,4.02124783 C180.601131,3.36456268 180.744639,2.7137693 180.92,2.07124783 C180.967004,1.88456406 181.034061,1.70351135 181.12,1.53124783 C181.18381,1.41579412 181.276942,1.31921255 181.39,1.25124783 C181.495203,1.18625393 181.61634,1.15164315 181.74,1.15124783 C181.931218,1.16251349 182.115177,1.22846107 182.27,1.34124783 C182.51,1.51724783 182.714,1.73724783 182.87,1.99124783 L183.09,1.99124783 C183.182009,1.35895496 183.319023,0.734034336 183.5,0.121247829 C183.309032,0.0448564315 183.105659,0.00418193483 182.9,0.00124782898 C182.665023,-0.00750597932 182.430607,0.0298646216 182.21,0.111247829 C181.859322,0.307538271 181.52492,0.531587258 181.21,0.781247829 C180.712942,1.13792676 180.238682,1.52534997 179.79,1.94124783 C179.548696,2.15780925 179.342861,2.41088592 179.18,2.69124783 C179.060153,2.96681668 178.972896,3.25543791 178.92,3.55124783 C178.92,3.74124783 178.85,3.86124783 178.82,3.94124783 C178.563949,4.05397735 178.299891,4.14756722 178.03,4.22124783 C177.71,4.31424783 177.47,4.39124783 177.31,4.45124783 L177.24,4.82124783 L177.68,4.82124783 L177.68,4.83124783 Z M76.07,21.3212478 L74.74,21.3212478 C74.7521631,21.8926992 74.6950809,22.4635209 74.57,23.0212478 C74.5399245,23.1800083 74.4304041,23.3121882 74.28,23.3712478 C73.467562,23.5352435 72.6376303,23.5957243 71.81,23.5512478 C71.357,23.5512478 70.487,23.5142478 69.2,23.4412478 L69.2,21.3612478 C69.2,18.7412478 69.257,16.9312478 69.37,15.9312478 L70.96,15.8612478 L72.39,15.8612478 C73.1667633,15.8517471 73.9429185,15.9086206 74.71,16.0312478 C75.1463561,16.078005 75.5720436,16.1962516 75.97,16.3812478 C76.0333866,16.4125166 76.0831718,16.4658579 76.11,16.5312478 C76.173,16.7932478 76.204,17.0612478 76.2,17.3312478 C76.26,18.1442478 76.29,18.6712478 76.29,18.9112478 L77.52,18.9112478 C77.52,18.2442478 77.567,17.4682478 77.66,16.5812478 C77.753,15.6942478 77.85,14.9612478 77.95,14.3812478 L77.81,14.1712478 C76.8468529,14.0676339 75.8786973,14.0175569 74.91,14.0210578 L67.63,14.1612478 L62.29,14.0210578 L62.29,15.3212478 C62.89,15.3442478 63.487,15.4012478 64.08,15.4912478 C64.233,15.5152478 64.379,15.5692478 64.51,15.6512478 C64.5805334,15.7187707 64.6292848,15.8058268 64.65,15.9012478 C64.7666176,16.4434107 64.8236228,16.9966966 64.82,17.5512478 C64.913,20.2182478 64.96,21.6312478 64.96,21.7912478 L64.96,28.0212478 C64.96,28.5542478 64.933,29.4342478 64.88,30.6612478 C64.827,31.8882478 64.787,32.6182478 64.76,32.8512478 C64.7491165,33.1268456 64.6774033,33.3966237 64.55,33.6412478 C64.4928551,33.7204318 64.4124653,33.7798503 64.32,33.8112478 C63.6520349,33.9488036 62.9719784,34.0191542 62.29,34.0212478 L62.29,35.2712478 C64.15,35.1982478 65.51,35.1612478 66.37,35.1612478 L72.29,35.2412478 L72.29,34.0212478 C71.4918739,33.99257 70.6966646,33.9090396 69.91,33.7712478 C69.7579683,33.7291994 69.624268,33.6377202 69.53,33.5112478 C69.3647436,32.9702025 69.2837949,32.4069343 69.29,31.8412478 C69.23,30.8812478 69.2,29.2142478 69.2,26.8412478 L69.2,25.1312478 L70.41,25.1312478 C71.59,25.1052478 72.77,25.1712478 73.94,25.3312478 C74.1527286,25.3478248 74.3486903,25.4530634 74.48,25.6212478 C74.6883422,26.3623936 74.7761298,27.1322236 74.74,27.9012478 L76.07,27.9012478 L76.07,21.3212478 Z M84.49,35.1012478 C85.157,35.1012478 86.317,35.1212478 87.97,35.1612478 L91.53,35.2412478 C92.823,35.2412478 93.777,35.2142478 94.39,35.1612478 C94.693546,35.1412537 94.9947236,35.0944038 95.29,35.0212478 C95.29,34.8282478 95.337,34.2542478 95.43,33.3012478 L95.81,30.2412478 L95.81,29.7412478 L94.58,29.7412478 C94.387,30.7142478 94.19,31.5882478 93.99,32.3612478 C93.9464105,32.5650454 93.857552,32.7564329 93.73,32.9212478 C93.4996866,33.0380286 93.2477845,33.1061102 92.99,33.1212478 C91.6654254,33.3123889 90.3282462,33.4026485 88.99,33.3912478 C88.483,33.3912478 87.533,33.3542478 86.14,33.2812478 L86.14,30.7012478 L86.14,26.4112478 L86.14,22.0412478 C86.14,20.3482478 86.163,18.9442478 86.21,17.8312478 C86.1885044,17.2034572 86.2152497,16.5749428 86.29,15.9512478 C86.3296649,15.8247514 86.4152958,15.7177128 86.53,15.6512478 C87.2086999,15.4546091 87.9136099,15.3635442 88.62,15.3812478 L88.62,14.0212478 C86.973,14.0942478 85.233,14.1312478 83.4,14.1312478 C81.753,14.1312478 80.29,14.0942478 79.01,14.0212478 L79.01,15.3512478 C79.7948655,15.3162757 80.5798463,15.4177818 81.33,15.6512478 C81.4389867,15.7077556 81.5215379,15.8046636 81.56,15.9212478 C81.71,17.0012478 81.774,18.0912478 81.75,19.1812478 L81.75,25.0912478 C81.75,27.2642478 81.73,29.1242478 81.69,30.6712478 C81.65,32.2182478 81.603,33.1182478 81.55,33.3712478 C81.5417733,33.4330179 81.5176534,33.4915947 81.48,33.5412478 C81.3621929,33.6647562 81.2233661,33.7663368 81.07,33.8412478 C80.7161357,34.0609034 80.348736,34.2579632 79.97,34.4312478 L79.97,35.2112478 C81.97,35.1182478 83.473,35.0712478 84.48,35.0712478 L84.49,35.1012478 Z M97.55,30.9012478 C98.4393,32.4696392 99.7763274,33.7370298 101.39,34.5412478 C103.214987,35.4099562 105.219516,35.8348478 107.24,35.7812478 C109.154301,35.8198822 111.057383,35.480046 112.84,34.7812478 C114.034977,34.2734262 115.118763,33.5361801 116.03,32.6112478 C116.95229,31.6906532 117.677069,30.5915751 118.16,29.3812478 C118.831161,27.7023354 119.170749,25.9093098 119.16,24.1012478 C119.160247,23.0634932 119.035825,22.0294664 118.79,21.0212478 C118.578446,20.1252174 118.24181,19.2634286 117.79,18.4612478 C116.665907,16.6074917 114.939804,15.1955464 112.9,14.4612478 C111.287695,13.9285454 109.597873,13.6683128 107.9,13.6912478 C106.164166,13.6737609 104.437436,13.9440905 102.79,14.4912478 C100.164085,15.4316599 98.0599819,17.4412781 97,20.0212478 C96.4104369,21.5618186 96.1251728,23.2020875 96.16,24.8512478 C96.0849793,26.9389398 96.5645945,29.0092213 97.55,30.8512478 L97.55,30.9012478 Z M101.55,19.5112478 C101.940809,18.2649821 102.736101,17.1846521 103.81,16.4412478 C104.934628,15.7382482 106.244726,15.3898177 107.57,15.4412478 C108.644823,15.3930595 109.714449,15.6166148 110.68,16.0912478 C111.481493,16.5612593 112.165447,17.2075956 112.68,17.9812478 C113.29339,18.8956255 113.740269,19.9112599 114,20.9812478 C114.319066,22.2495072 114.473668,23.5535407 114.46,24.8612478 C114.507045,26.6522383 114.218756,28.4362328 113.61,30.1212478 C113.188936,31.3604986 112.374205,32.4280781 111.29,33.1612478 C110.259629,33.7747318 109.079034,34.0897879 107.88,34.0712478 C106.618602,34.08811 105.379094,33.7409089 104.31,33.0712478 C103.167199,32.2617323 102.301316,31.1200244 101.83,29.8012478 C101.11577,27.9358285 100.775969,25.9479937 100.83,23.9512478 C100.811004,22.4259955 101.047611,20.9083333 101.53,19.4612478 L101.55,19.5112478 Z M121.29,15.6212478 C121.388117,15.683468 121.464878,15.7741854 121.51,15.8812478 C121.658916,16.6282231 121.719332,17.3901384 121.69,18.1512478 L121.77,21.3512478 L121.77,26.9712478 L121.65,31.3912478 C121.638069,31.9904948 121.587967,32.5883726 121.5,33.1812478 C121.48836,33.3291582 121.443954,33.4726252 121.37,33.6012478 C121.302544,33.6789133 121.211001,33.7317264 121.11,33.7512478 C120.449628,33.8666088 119.780368,33.923496 119.11,33.9212478 L119.11,35.2512478 C120.443,35.1782478 121.9,35.1412478 123.48,35.1412478 C125.247,35.1412478 126.99,35.1782478 128.71,35.2512478 L128.71,33.9112478 C128.122082,33.9155144 127.534416,33.8854633 126.95,33.8212478 C126.794119,33.7978383 126.644508,33.7434343 126.51,33.6612478 C126.426476,33.6052216 126.357836,33.5297173 126.31,33.4412478 C126.196331,33.0856866 126.138971,32.7145351 126.14,32.3412478 C126.14,32.0612478 126.11,30.8812478 126.05,28.8012478 L126.05,23.9912478 C126.05,23.0312478 126.08,21.1242478 126.14,18.2712478 C126.14,16.9982478 126.17,16.1782478 126.23,15.8112478 C126.705748,15.7306381 127.187472,15.6904944 127.67,15.6912478 C128.43389,15.6547614 129.198954,15.7322788 129.94,15.9212478 C130.608149,16.1738704 131.18363,16.6237914 131.59,17.2112478 C132.056,17.8932478 132.29,18.7062478 132.26,19.5312478 C132.270648,20.4032439 132.049805,21.2624605 131.62,22.0212478 C131.273272,22.6846672 130.727838,23.2231089 130.06,23.5612478 C129.185825,23.8879187 128.24951,24.0143554 127.32,23.9312478 L127.15,24.4312478 C127.512,24.7152478 127.829,25.0522478 128.09,25.4312478 C128.757,26.3112478 129.543,27.5182478 130.45,29.0512478 L133.69,34.3912478 C133.847,34.6612478 133.968,34.9502478 134.05,35.2512478 C134.85,35.2112478 135.653,35.1912478 136.46,35.1912478 C137.127,35.1912478 138.25,35.2112478 139.83,35.2512478 L139.83,33.9112478 C139.492286,33.9278876 139.154189,33.887316 138.83,33.7912478 C138.640734,33.7018105 138.470858,33.5761021 138.33,33.4212478 C138.157,33.2412478 137.693,32.6512478 136.94,31.6512478 L135.94,30.1512478 L133.59,26.6512478 L133.42,26.3612478 C133.36,26.2612478 133.18,25.9812478 132.85,25.5012478 C132.52,25.0212478 132.24,24.5712478 131.99,24.1212478 C133.359477,23.677343 134.573738,22.8516456 135.49,21.7412478 C136.231926,20.7900892 136.633338,19.617542 136.63,18.4112478 C136.658938,17.4689931 136.366211,16.5449628 135.8,15.7912478 C135.304424,15.1140989 134.602678,14.6158594 133.8,14.3712478 C132.63314,14.1037595 131.436398,13.9894639 130.24,14.0312478 C129.42,14.0312478 128.387,14.0612478 127.14,14.1212478 C126.38,14.1682478 125.473,14.1912478 124.42,14.1912478 L121.54,14.1912478 L119.12,14.1212478 L119.12,15.3212478 C119.869955,15.3234521 120.61636,15.4243177 121.34,15.6212478 L121.29,15.6212478 Z M145.44,14.1612478 C143.793,14.1612478 142.333,14.1242478 141.06,14.0512478 L141.06,15.3812478 C141.702029,15.3860191 142.343188,15.429431 142.98,15.5112478 C143.113124,15.5344485 143.237506,15.5931847 143.34,15.6812478 C143.415,15.7666625 143.466668,15.8699994 143.49,15.9812478 C143.6,16.7802478 143.66,17.5852478 143.67,18.3912478 L143.67,28.6012478 C143.67,29.6342478 143.63,30.7542478 143.55,31.9612478 C143.5,32.7912478 143.46,33.2612478 143.43,33.3812478 C143.407467,33.4730802 143.358846,33.5564316 143.29,33.6212478 C143.163918,33.7143954 143.015692,33.772996 142.86,33.7912478 C142.7,33.7912478 142.093,33.8282478 141.04,33.9012478 L141.04,35.2312478 C142.488663,35.1533297 143.93925,35.1166482 145.39,35.1212478 C147.263,35.1212478 149.02,35.1582478 150.66,35.2312478 L150.66,33.9112478 C150.055166,33.9159344 149.450637,33.882535 148.85,33.8112478 C148.685439,33.7852758 148.528485,33.7238592 148.39,33.6312478 C148.285674,33.5472817 148.211878,33.4313172 148.18,33.3012478 C148.049047,32.6431353 147.998676,31.9715311 148.03,31.3012478 L148.03,22.4012478 C148.03,22.2082478 148.05,20.8742478 148.09,18.4012478 L148.09,16.9112478 C148.0923,16.5724859 148.142807,16.2357758 148.24,15.9112478 C148.269512,15.8123688 148.328894,15.7250425 148.41,15.6612478 C148.533139,15.5762827 148.672868,15.5183462 148.82,15.4912478 C149.427145,15.4168502 150.038314,15.3801133 150.65,15.3812478 L150.65,14.0212478 C149.003,14.0942478 147.257,14.1312478 145.41,14.1312478 L145.44,14.1612478 Z M157.15,35.1612478 L161.64,35.2712478 C163.403666,35.3092888 165.16311,35.0834598 166.86,34.6012478 C168.323929,34.1355162 169.682729,33.3881761 170.86,32.4012478 C172.103737,31.3698367 173.098481,30.0708575 173.77,28.6012478 C174.498305,26.9800666 174.860228,25.2182518 174.83,23.4412478 C174.846112,22.0165957 174.605609,20.6006795 174.12,19.2612478 C173.827911,18.4881651 173.405086,17.7710536 172.87,17.1412478 C172.301479,16.4683302 171.625718,15.8939335 170.87,15.4412478 C169.997221,14.9500932 169.046844,14.6118809 168.06,14.4412478 C166.643772,14.1948825 165.207246,14.0843805 163.77,14.1112478 C162.99,14.1112478 161.957,14.1282478 160.67,14.1612478 C158.883,14.2212478 157.667,14.2512478 157.02,14.2512478 L151.57,14.0212478 L151.57,15.2412478 C152.663,15.3812478 153.297,15.4712478 153.47,15.5112478 C153.610913,15.5348315 153.742486,15.5971554 153.85,15.6912478 C153.905651,15.7510631 153.946721,15.8229344 153.97,15.9012478 C154.115,16.8042478 154.182,17.7172478 154.17,18.6312478 C154.223,21.2042478 154.25,23.1582478 154.25,24.4912478 L154.25,27.0212478 C154.25,30.0612478 154.193,32.2582478 154.08,33.6112478 C153.76,33.8542478 153.426,34.0772478 153.08,34.2812478 L152.66,34.5212478 L152.66,35.2512478 L157.24,35.1412478 L157.15,35.1612478 Z M158.46,27.4512478 L158.46,23.9512478 C158.46,19.9912478 158.513,17.2982478 158.62,15.8712478 C159.470851,15.7438211 160.329679,15.6769863 161.19,15.6712478 C162.752225,15.6040196 164.315177,15.7863078 165.82,16.2112478 C166.809183,16.5540009 167.684633,17.1630092 168.35,17.9712478 C169.026259,18.7973771 169.517319,19.7590361 169.79,20.7912478 C170.084452,21.880079 170.232422,23.0033076 170.23,24.1312478 C170.238634,25.3221106 170.0907,26.5089424 169.79,27.6612478 C169.5387,28.6627761 169.123062,29.615701 168.56,30.4812478 C168.119705,31.1735747 167.557229,31.7801004 166.9,32.2712478 C166.290589,32.6895709 165.614193,33.0007129 164.9,33.1912478 C163.73376,33.4882405 162.533324,33.6294684 161.33,33.6112478 C160.428243,33.6057043 159.528496,33.5254295 158.64,33.3712478 C158.533,32.4112478 158.48,30.4312478 158.48,27.4312478 L158.46,27.4512478 Z M175.63,35.1612478 L179.12,35.2712478 L179.12,34.0212478 C178.389934,34.0534984 177.659664,33.9622146 176.96,33.7512478 C176.794041,33.6368329 176.70238,33.4420527 176.72,33.2412478 C176.868,32.3512478 177.12,31.4822478 177.47,30.6512478 L178.13,28.8412478 L185.94,28.8412478 L187.29,32.1212478 C187.475,32.5122478 187.593,32.9312478 187.64,33.3612478 C187.654371,33.5372993 187.564415,33.7054775 187.41,33.7912478 C186.715269,33.9535683 186.003377,34.0308019 185.29,34.0212478 L185.29,35.2712478 L190.6,35.1612478 L194.81,35.2712478 L194.81,34.0212478 L194.14,33.9512478 C193.843855,33.9423997 193.549211,33.9055691 193.26,33.8412478 C193.145642,33.8026418 193.040218,33.7414278 192.95,33.6612478 C192.832223,33.548363 192.734199,33.416537 192.66,33.2712478 L192.05,31.8812478 L191.11,29.8112478 L184.39,13.9612478 L182.23,13.9612478 L180.9,17.4012478 L176.95,27.1512478 C176.45118,28.3897468 175.947844,29.6264217 175.44,30.8612478 C175.110426,31.6328697 174.777088,32.4028789 174.44,33.1712478 C174.351893,33.3387398 174.237051,33.4907361 174.1,33.6212478 C173.982962,33.7186642 173.846647,33.7902297 173.7,33.8312478 C173.217,33.9162478 172.73,33.9692478 172.24,33.9912478 L172.24,35.2412478 L175.71,35.1312478 L175.63,35.1612478 Z M181.99,19.2212478 L185.23,27.0212478 L178.88,27.0212478 L182,19.1912478 L181.99,19.2212478 Z M63.08,1.83124783 C63.166533,1.87348646 63.2393403,1.93935972 63.29,2.02124783 C63.34,2.15224783 63.367,2.29124783 63.37,2.43124783 L63.37,8.09124783 C63.4524257,8.67317172 63.7526416,9.20212361 64.21,9.57124783 C64.5069358,9.80475494 64.846632,9.97799997 65.21,10.0812478 C65.793505,10.2579674 66.4003372,10.3456209 67.01,10.3412478 C67.4992768,10.3475905 67.9871249,10.2870301 68.46,10.1612478 C68.8536066,10.0551705 69.2234911,9.87531843 69.55,9.63124783 C69.8482924,9.4174398 70.1000484,9.14527107 70.29,8.83124783 C70.4620333,8.52168809 70.573999,8.18239821 70.62,7.83124783 C70.6730981,7.44015356 70.6998252,7.04593012 70.7,6.65124783 L70.7,5.12124783 L70.7,3.32124783 C70.7064176,2.88588506 70.7431733,2.45149906 70.81,2.02124783 C70.8287017,1.94673256 70.8707511,1.88015434 70.93,1.83124783 C71.1665232,1.74475472 71.4190031,1.71063581 71.67,1.73124783 L71.67,1.22124783 L70.29,1.26124783 L68.74,1.26124783 L68.74,1.74124783 C69.048681,1.72953997 69.3569444,1.77357759 69.65,1.87124783 C69.7165991,1.90131172 69.7699361,1.95464877 69.8,2.02124783 C69.873,2.34924783 69.903,2.68524783 69.89,3.02124783 L69.89,6.32124783 C69.9319573,6.94293145 69.8573427,7.56698051 69.67,8.16124783 C69.5086795,8.49395134 69.2461239,8.76700911 68.92,8.94124783 C68.4840832,9.16215523 67.9980907,9.26555788 67.51,9.24124783 C67.0926258,9.25135845 66.677553,9.17650926 66.29,9.02124783 C65.9921761,8.89907219 65.7354411,8.69437806 65.55,8.43124783 C65.3670136,8.12866094 65.2637931,7.78459271 65.25,7.43124783 L65.25,3.82124783 C65.2149263,3.24114461 65.228306,2.6591265 65.29,2.08124783 C65.299687,1.99263439 65.3470513,1.91247941 65.42,1.86124783 C65.6969247,1.75492106 65.9946316,1.71385804 66.29,1.74124783 L66.29,1.22124783 L65.17,1.22124783 L64.29,1.26124783 L62.29,1.22124783 L62.29,1.74124783 L63.12,1.83124783 L63.08,1.83124783 Z M74.37,10.1012478 L77.42,10.1012478 L77.42,9.56124783 L77.29,9.56124783 C77.0892459,9.55539113 76.8889544,9.53870017 76.69,9.51124783 C76.6151785,9.50619161 76.5428909,9.48209575 76.48,9.44124783 C76.4388624,9.41095823 76.4075595,9.36922097 76.39,9.32124783 C76.336226,9.02427704 76.30945,8.72304742 76.31,8.42124783 L76.31,3.22124783 C78.817,6.28124783 80.753,8.57424783 82.12,10.1012478 L83.21,10.2612478 L83.29,10.2112478 C83.23,9.61124783 83.2,7.90424783 83.2,5.09124783 L83.2,3.42124783 C83.1793665,2.9327777 83.2095284,2.44348545 83.29,1.96124783 C83.2992018,1.91997389 83.3243687,1.8840211 83.36,1.86124783 C83.66,1.76724783 83.976,1.72924783 84.29,1.75124783 L84.29,1.22124783 L81.29,1.22124783 L81.29,1.75124783 C81.629,1.72124783 81.97,1.76624783 82.29,1.88124783 C82.364473,1.96699727 82.4037673,2.0777357 82.4,2.19124783 C82.453,2.59124783 82.48,3.92424783 82.48,6.19124783 L82.48,7.66124783 C81.893,7.05424783 81.153,6.21824783 80.26,5.15124783 C79.1635417,3.86578998 78.0965966,2.55544805 77.06,1.22124783 L74.37,1.22124783 L74.37,1.75124783 C74.641,1.76124783 74.912,1.78724783 75.18,1.83124783 C75.2546443,1.84540677 75.3238863,1.88002778 75.38,1.93124783 C75.4268163,1.99277958 75.4577296,2.06491069 75.47,2.14124783 C75.486,2.34124783 75.486,2.54124783 75.47,2.74124783 L75.47,7.96124783 C75.437,8.58124783 75.407,8.97124783 75.38,9.13124783 C75.3719892,9.21630277 75.3446243,9.29839737 75.3,9.37124783 C75.2676718,9.40793532 75.2262993,9.43551694 75.18,9.45124783 C74.8950455,9.49224353 74.6078334,9.51562127 74.32,9.52124783 L74.32,10.0612478 L74.37,10.1012478 Z M89,1.26124783 L87.17,1.26124783 L87.17,1.78124783 C87.437,1.78124783 87.705,1.79824783 87.97,1.83124783 C88.0254205,1.84055394 88.077269,1.8647499 88.12,1.90124783 C88.1513345,1.93839203 88.1720634,1.98330458 88.18,2.03124783 C88.237,2.35824783 88.274,2.68924783 88.29,3.02124783 L88.29,7.32124783 C88.29,7.75424783 88.27,8.22424783 88.23,8.73124783 L88.23,9.33124783 C88.2203781,9.36980145 88.19949,9.40461506 88.17,9.43124783 C88.1170297,9.46969349 88.0550272,9.49380559 87.99,9.50124783 L87.23,9.50124783 L87.23,10.0612478 L91.26,10.0612478 L91.26,9.54124783 C91.0069212,9.55730839 90.7530788,9.55730839 90.5,9.54124783 C90.4209045,9.51982889 90.3486094,9.47851739 90.29,9.42124783 C90.2454706,9.38570303 90.2138498,9.3365152 90.2,9.28124783 C90.1449522,9.00148248 90.1247985,8.71597195 90.14,8.43124783 L90.14,4.72124783 L90.14,3.04124783 L90.14,2.42124783 C90.1387143,2.28627907 90.1555308,2.15174722 90.19,2.02124783 C90.2066632,1.96987746 90.2424766,1.92690137 90.29,1.90124783 C90.3411053,1.86620405 90.3990364,1.84235008 90.46,1.83124783 C90.7164227,1.81542214 90.9735773,1.81542214 91.23,1.83124783 L91.23,1.22124783 L89.03,1.22124783 L89,1.26124783 Z M99.14,10.1412478 C99.4,9.42124783 99.893,8.18824783 100.62,6.44124783 L101.48,4.44124783 L101.93,3.39124783 C102.104219,2.8810819 102.346399,2.39672257 102.65,1.95124783 C102.880544,1.86611813 103.124242,1.82211714 103.37,1.82124783 L103.37,1.22124783 L100.39,1.22124783 L100.39,1.78124783 L101.32,1.78124783 C101.356856,1.79902561 101.388024,1.82673015 101.41,1.86124783 C101.424001,1.91366234 101.424001,1.96883332 101.41,2.02124783 C101.414698,2.07113748 101.414698,2.12135818 101.41,2.17124783 C101.37,2.34424783 101.253,2.67824783 101.06,3.17124783 C100.913477,3.5725431 100.763471,3.97255819 100.61,4.37124783 L99.2,7.86124783 L97.6,4.02124783 L97.6,3.90124783 L97.29,3.29124783 C97.1049063,2.90500719 96.9640139,2.49910293 96.87,2.08124783 C96.8648985,2.02340594 96.8828714,1.9658928 96.92,1.92124783 C96.9729675,1.873011 97.0391224,1.84167445 97.11,1.83124783 C97.3640741,1.78601476 97.6219859,1.76591773 97.88,1.77124783 L97.88,1.22124783 L93.75,1.22124783 L93.75,1.78124783 C94.0179849,1.76609682 94.2863478,1.80346381 94.54,1.89124783 C94.703,2.04824783 94.829,2.24024783 94.91,2.45124783 C95.07,2.77124783 95.503,3.77124783 96.21,5.45124783 L97.11,7.60124783 L98.11,10.1312478 L99.11,10.1312478 L99.14,10.1412478 Z M108.29,10.0212478 L111.37,10.0212478 C111.753,10.0412478 112.137,10.0412478 112.52,10.0212478 L112.6,9.94124783 C112.610089,9.24926007 112.656821,8.55829229 112.74,7.87124783 L112.29,7.87124783 C112.243928,8.26088553 112.163618,8.64570661 112.05,9.02124783 C112.035033,9.06514121 112.007147,9.1034849 111.97,9.13124783 C111.742885,9.2162331 111.502493,9.26024857 111.26,9.26124783 L108.79,9.26124783 L108.79,5.87124783 C109.123083,5.85297928 109.456917,5.85297928 109.79,5.87124783 C110.167892,5.86607728 110.545635,5.88947727 110.92,5.94124783 C111.03,5.95124783 111.128,6.01124783 111.19,6.10124783 C111.285,6.39424783 111.319,6.70424783 111.29,7.01124783 L111.8,7.01124783 L111.8,4.23124783 L111.29,4.23124783 C111.292963,4.50059842 111.262736,4.7692884 111.2,5.03124783 C111.185545,5.08350301 111.153823,5.12932424 111.11,5.16124783 C110.977673,5.18440976 110.842327,5.18440976 110.71,5.16124783 L108.81,5.16124783 L108.81,3.84124783 C108.805346,3.2300362 108.835394,2.61905322 108.9,2.01124783 L110.05,2.01124783 C110.460986,2.01158499 110.87163,2.03495497 111.28,2.08124783 C111.454524,2.08465259 111.627114,2.11849376 111.79,2.18124783 C111.830688,2.21421079 111.85891,2.26007107 111.87,2.31124783 C111.914,2.61624783 111.934,2.92324783 111.93,3.23124783 L112.42,3.23124783 L112.48,2.31124783 L112.6,1.39124783 L112.6,1.31124783 L112.29,1.22124783 L105.83,1.22124783 L105.83,1.76124783 C106.14,1.75824783 106.45,1.79524783 106.75,1.87124783 C106.794399,1.89129043 106.829957,1.92684846 106.85,1.97124783 C106.92,2.25924783 106.95,2.55524783 106.94,2.85124783 L106.94,6.94124783 C106.94,7.27424783 106.923,7.80424783 106.89,8.53124783 C106.89,8.93124783 106.89,9.22124783 106.83,9.39124783 C106.638,9.53824783 106.43,9.66124783 106.21,9.76124783 L106.21,10.1012478 L108.29,10.0212478 Z M116.64,1.84124783 C116.680861,1.86749339 116.712365,1.9059991 116.73,1.95124783 C116.798,2.28024783 116.825,2.61624783 116.81,2.95124783 L116.81,6.62124783 L116.76,8.47124783 C116.756338,8.72228695 116.736296,8.97281945 116.7,9.22124783 C116.697407,9.28429604 116.680296,9.34589492 116.65,9.40124783 C116.620707,9.43251384 116.582147,9.45354641 116.54,9.46124783 C116.25924,9.5092417 115.974829,9.53266373 115.69,9.53124783 L115.69,10.0912478 L119.71,10.0912478 L119.71,9.54124783 C119.463542,9.5556101 119.216458,9.5556101 118.97,9.54124783 C118.90595,9.53008707 118.844762,9.50629161 118.79,9.47124783 C118.756658,9.44792143 118.729256,9.41709475 118.71,9.38124783 C118.663504,9.23234478 118.639901,9.0772415 118.64,8.92124783 L118.64,7.43124783 L118.64,5.43124783 L118.64,3.03124783 L118.64,2.03124783 C118.838247,1.99780996 119.038953,1.98108448 119.24,1.98124783 C119.576516,1.96187073 119.913985,1.99561756 120.24,2.08124783 C120.52,2.18724783 120.76,2.37524783 120.93,2.62124783 C121.13,2.91524783 121.229,3.26624783 121.21,3.62124783 C121.20664,3.97213678 121.113702,4.31635129 120.94,4.62124783 C120.797254,4.9010049 120.569757,5.12850154 120.29,5.27124783 C119.923542,5.41025047 119.530484,5.4649368 119.14,5.43124783 L119.07,5.64124783 C119.22,5.76024783 119.352,5.90124783 119.46,6.06124783 C119.733,6.42824783 120.067,6.93424783 120.46,7.58124783 L121.82,9.82124783 C121.885,9.93424783 121.935,10.0552478 121.97,10.1812478 L124.39,10.1812478 L124.39,9.54124783 C124.25484,9.54633187 124.11975,9.52944568 123.99,9.49124783 C123.909792,9.45284151 123.838318,9.39838509 123.78,9.33124783 C123.707,9.25824783 123.513,9.01124783 123.2,8.59124783 L122.77,7.96124783 L121.77,6.49124783 L121.7,6.37124783 L121.5,6.02124783 C121.37,5.82124783 121.24,5.63124783 121.14,5.44124783 C121.711974,5.25376778 122.218506,4.90682848 122.6,4.44124783 C122.913,4.04124783 123.082,3.54824783 123.08,3.04124783 C123.091901,2.64543687 122.968437,2.25740566 122.73,1.94124783 C122.521358,1.65872557 122.226553,1.45165986 121.89,1.35124783 C121.401553,1.23987028 120.900645,1.19280507 120.4,1.21124783 L115.75,1.21124783 L115.75,1.74124783 C116.064,1.74324783 116.377,1.78724783 116.68,1.87124783 L116.64,1.84124783 Z M133.03,2.47124783 C133.058261,2.19904362 133.101662,1.9286248 133.16,1.66124783 L133.11,1.51124783 C132.760642,1.34589773 132.390673,1.22818041 132.01,1.16124783 C131.581351,1.08083778 131.146125,1.0406631 130.71,1.0412195 C130.286045,1.03989687 129.863318,1.0868666 129.45,1.18124783 C129.057694,1.26938052 128.684866,1.42867971 128.35,1.65124783 C128.009691,1.88663145 127.737251,2.20735241 127.56,2.58124783 C127.358804,2.98840007 127.256045,3.4371145 127.26,3.89124783 C127.258713,4.21559262 127.316313,4.53747731 127.43,4.84124783 C127.537425,5.1260379 127.708434,5.38255203 127.93,5.59124783 C128.182,5.81724783 128.484,5.98124783 128.81,6.07124783 C129.05,6.14424783 129.553,6.26124783 130.32,6.42124783 C130.706364,6.49611415 131.082374,6.61697444 131.44,6.78124783 C131.64,6.88324783 131.804,7.04324783 131.91,7.24124783 C132.016,7.45524783 132.067,7.69224783 132.06,7.93124783 C132.065415,8.2280567 131.993014,8.52110968 131.85,8.78124783 C131.690758,9.04812022 131.448365,9.25538402 131.16,9.37124783 C130.819194,9.51778609 130.450885,9.58940171 130.08,9.58124783 C129.635397,9.58580932 129.196274,9.48288972 128.8,9.28124783 C128.465326,9.13166024 128.178203,8.89296734 127.97,8.59124783 C127.919331,8.21342093 127.895937,7.83243551 127.9,7.45124783 L127.39,7.45124783 C127.411262,8.18993156 127.344119,8.92850778 127.19,9.65124783 C127.61733,9.86574603 128.066611,10.0333879 128.53,10.1512478 C128.985905,10.2552425 129.452405,10.3055841 129.92,10.3012478 C130.543502,10.3181505 131.164531,10.2163425 131.75,10.0012478 C132.09,9.86324783 132.403,9.67124783 132.68,9.43124783 C132.966557,9.19361818 133.20719,8.90553632 133.39,8.58124783 C133.623,8.14124783 133.74,7.64924783 133.73,7.15124783 C133.733971,6.86998734 133.693471,6.58986613 133.61,6.32124783 C133.543542,6.09811284 133.438633,5.88829546 133.3,5.70124783 C133.162447,5.52718022 132.992697,5.38119501 132.8,5.27124783 C132.539254,5.12715813 132.259988,5.01948936 131.97,4.95124783 L131.12,4.79124783 L130.12,4.60124783 C129.864808,4.54238856 129.619096,4.44814317 129.39,4.32124783 C129.226933,4.2234844 129.095115,4.08125988 129.01,3.91124783 C128.912183,3.69819217 128.864299,3.46561598 128.87,3.23124783 C128.875547,2.84583036 129.046798,2.48146756 129.34,2.23124783 C129.713671,1.91809047 130.193424,1.76055951 130.68,1.79124783 C131.054775,1.7869706 131.426223,1.86194184 131.77,2.01124783 C132.036,2.11124783 132.27,2.28124783 132.45,2.50124783 C132.49,2.83324783 132.51,3.16724783 132.51,3.50124783 L133.04,3.50124783 C133.04,3.07124783 133.04,2.72124783 133.1,2.50124783 L133.03,2.47124783 Z M138.67,1.24124783 L136.84,1.24124783 L136.84,1.78124783 C137.107426,1.7819338 137.37457,1.79863034 137.64,1.83124783 C137.695421,1.84055394 137.747269,1.8647499 137.79,1.90124783 C137.821335,1.93839203 137.842063,1.98330458 137.85,2.03124783 C137.897561,2.36257927 137.92428,2.69656911 137.93,3.03124783 L137.93,7.32124783 C137.93,7.75424783 137.913,8.22424783 137.88,8.73124783 L137.88,9.33124783 C137.870378,9.36980145 137.84949,9.40461506 137.82,9.43124783 C137.76703,9.46969349 137.705027,9.49380559 137.64,9.50124783 L136.88,9.50124783 L136.88,10.0612478 L140.91,10.0612478 L140.91,9.54124783 C140.656921,9.55730839 140.403079,9.55730839 140.15,9.54124783 C140.08162,9.52865694 140.016792,9.5013608 139.96,9.46124783 C139.914891,9.4262299 139.88313,9.37682391 139.87,9.32124783 C139.81485,9.04149613 139.794695,8.75597283 139.81,8.47124783 L139.81,4.72124783 L139.81,3.04124783 L139.81,2.42124783 C139.818573,2.28492563 139.845482,2.150381 139.89,2.02124783 C139.903434,1.98197903 139.927701,1.94731111 139.96,1.92124783 C140.011246,1.88646418 140.06912,1.86263359 140.13,1.85124783 C140.383097,1.83578132 140.636903,1.83578132 140.89,1.85124783 L140.89,1.22124783 L138.69,1.22124783 L138.67,1.24124783 Z M147.51,10.0212478 C148.077,10.0212478 148.77,10.0382478 149.59,10.0712478 L149.59,9.58124783 C149.282823,9.59141167 148.975908,9.55431206 148.68,9.47124783 C148.585821,9.42142235 148.516886,9.33434683 148.49,9.23124783 C148.423091,8.68396257 148.399685,8.13223349 148.42,7.58124783 L148.42,3.78124783 L148.42,2.04124783 L149.33,2.04124783 C149.817,2.04124783 150.233,2.05824783 150.58,2.09124783 C150.64574,2.07552846 150.71426,2.07552846 150.78,2.09124783 C150.827708,2.17362698 150.85513,2.26617578 150.86,2.36124783 C150.907,2.67224783 150.934,2.98624783 150.94,3.30124783 L151.46,3.30124783 L151.46,1.91124783 C151.471427,1.68351306 151.494792,1.45653451 151.53,1.23124783 L151.47,1.17124783 L143.45,1.17124783 L143.39,1.23124783 C143.39,1.44424783 143.41,1.64424783 143.45,1.83124783 C143.49,2.01824783 143.49,2.50824783 143.45,3.30124783 L143.97,3.30124783 C143.977,2.96624783 144.01,2.63124783 144.07,2.30124783 C144.075278,2.22181473 144.103022,2.14551745 144.15,2.08124783 C144.225219,2.04673705 144.307257,2.02964586 144.39,2.03124783 L146.51,2.03124783 L146.51,7.57124783 C146.530334,8.11890621 146.506926,8.66731396 146.44,9.21124783 C146.414494,9.31752247 146.345565,9.40821826 146.25,9.46124783 C145.953234,9.53914432 145.6466,9.57284031 145.34,9.56124783 L145.34,10.0812478 C146.12,10.0482478 146.813,10.0312478 147.42,10.0312478 L147.51,10.0212478 Z M157.91,3.64124783 C157.635572,3.09645833 157.328341,2.56882216 156.99,2.06124783 C156.848078,1.83543723 156.683928,1.62438692 156.5,1.43124783 C156.330481,1.27258159 156.142459,1.13492249 155.94,1.02124783 L155.24,1.19124783 L153.89,1.46124783 L153.89,2.02124783 C154.075853,1.99660255 154.264147,1.99660255 154.45,2.02124783 C154.618,2.13724783 154.769,2.27524783 154.9,2.43124783 C155.271246,2.86254677 155.605746,3.32415758 155.9,3.81124783 C156.353,4.51824783 156.78,5.23424783 157.18,5.96124783 C157.29554,6.1451322 157.37685,6.34840741 157.42,6.56124783 L157.42,9.00124783 C157.423233,9.13139522 157.399396,9.26079525 157.35,9.38124783 C157.306223,9.43278822 157.246318,9.46802689 157.18,9.48124783 C156.898192,9.51891998 156.614306,9.53895897 156.33,9.54124783 L156.33,10.1012478 L160.45,10.1012478 L160.45,9.54124783 C160.16911,9.54725734 159.888194,9.53053615 159.61,9.49124783 C159.536508,9.47590783 159.469897,9.43734321 159.42,9.38124783 C159.359144,9.24222399 159.325211,9.09291834 159.32,8.94124783 C159.3,8.55124783 159.3,8.16124783 159.32,7.77124783 L159.32,6.68124783 C159.305142,6.52159278 159.305142,6.36090288 159.32,6.20124783 C159.36,6.03424783 159.42,5.87324783 159.5,5.72124783 C159.64,5.45424783 160.007,4.85424783 160.6,3.92124783 C161.193,2.98824783 161.757,2.18124783 162.29,1.50124783 L162.29,1.22124783 L161.29,1.22124783 C161.23,1.34124783 161.08,1.61124783 160.85,2.01124783 L159.65,4.13124783 L158.85,5.42124783 C158.75,5.20124783 158.453,4.61424783 157.96,3.66124783 L157.91,3.64124783 Z" id="Shape" fill="#004B93"></path>
            <g id="Group" fill="#FFFFFF">
                <path d="M36.21,29.4012478 L36.21,20.7312478 L44.2,20.7312478 L44.2,15.0112478 L36.21,15.0112478 L36.21,6.91124783 L44.98,6.91124783 L44.98,10.0512478 L50.77,10.0512478 L50.77,1.24124783 L27.59,1.24124783 L27.59,6.91124783 L29.77,6.91124783 L29.77,29.4012478 L27.6,29.4012478 L27.6,35.1212478 L38.3,35.1212478 L38.3,29.4012478 L36.21,29.4012478 Z M24.58,22.3112478 L24.58,6.91124783 L26.72,6.91124783 L26.72,1.24124783 L16.01,1.24124783 L16.01,6.91124783 L18.1,6.91124783 L18.1,20.4012478 C18.1,26.0612478 17.45,28.7712478 13.39,28.7712478 C9.33,28.7712478 8.67,26.0212478 8.67,20.4012478 L8.67,6.91124783 L10.74,6.91124783 L10.74,1.24124783 L0,1.24124783 L0,6.91124783 L2.13,6.91124783 L2.13,22.3112478 C2.13,25.6812478 2.13,28.4312478 3.72,30.9112478 C5.49,33.7112478 8.72,35.5012478 13.38,35.5012478 C21.64,35.5012478 24.58,31.1912478 24.58,22.3112478 Z M56.07,1.23124783 L56.07,35.1112478 L57.57,35.1112478 L57.57,1.23124783 L56.07,1.23124783 Z" id="Shape"></path>
                <path d="M169.09,10.0212478 C169.22,10.3792478 169.47,10.6802478 169.8,10.8712478 C170.224,11.0972478 170.7,11.2042478 171.18,11.1812478 C171.632999,11.1890785 172.083652,11.1145345 172.51,10.9612478 C172.943194,10.7916444 173.355816,10.573592 173.74,10.3112478 C174.085996,10.0933366 174.402009,9.83111323 174.68,9.53124783 C175.01215,9.09284871 175.262801,8.59832048 175.42,8.07124783 C175.629389,7.45610954 175.737463,6.81104208 175.74,6.16124783 C175.744472,5.84711617 175.704065,5.53395536 175.62,5.23124783 C175.544318,4.96257538 175.411259,4.7135161 175.23,4.50124783 C175.012111,4.27402012 174.740381,4.10547899 174.44,4.01124783 C174.070871,3.88059295 173.681538,3.81626849 173.29,3.82124783 C172.801789,3.81952331 172.318441,3.91823525 171.87,4.11124783 C171.429816,4.29969717 171.016282,4.54512817 170.64,4.84124783 C170.356519,5.05075848 170.095165,5.2886581 169.86,5.55124783 C169.55662,5.97751324 169.333007,6.45523321 169.2,6.96124783 C169.005249,7.57251148 168.904105,8.20972295 168.9,8.85124783 C168.896998,9.25326253 168.964695,9.65267487 169.1,10.0312478 L169.09,10.0212478 Z M170.95,6.55124783 C171.066025,5.9484636 171.319227,5.38046998 171.69,4.89124783 C171.945694,4.6091851 172.309297,4.44919981 172.69,4.45124783 C173.044355,4.43807202 173.385849,4.58495112 173.62,4.85124783 C173.89,5.22424783 174.019,5.68124783 173.98,6.14124783 C173.972864,6.88823497 173.868658,7.63112572 173.67,8.35124783 C173.563824,8.78199505 173.406015,9.19834286 173.2,9.59124783 C173.067161,9.84901528 172.875279,10.0717361 172.64,10.2412478 C172.425236,10.3780457 172.174551,10.4476804 171.92,10.4412478 C171.544313,10.472741 171.175169,10.3287751 170.92,10.0512478 C170.662369,9.67283251 170.542356,9.21748744 170.58,8.76124783 C170.592936,8.0067579 170.703865,7.25714783 170.91,6.53124783 L170.95,6.55124783 Z M177.68,4.83124783 L178.68,4.83124783 L177.62,10.3012478 C177.463815,11.3150697 177.239982,12.3173074 176.95,13.3012478 C176.894215,13.4902181 176.786866,13.6599002 176.64,13.7912478 C176.529122,13.8798718 176.391928,13.929121 176.25,13.9312478 C176.102779,13.9320154 175.960415,13.8786287 175.85,13.7812478 C175.704964,13.6405489 175.592349,13.4699198 175.52,13.2812478 L175.29,13.2812478 C175.24,13.5412478 175.18,13.7912478 175.11,14.0112478 C175.04,14.2312478 174.94,14.5212478 174.81,14.8912478 C174.961,14.9612478 175.124,15.0052478 175.29,15.0212478 C175.543,15.0152478 175.79,14.9462478 176.01,14.8212478 C176.546119,14.5185888 177.02094,14.1183828 177.41,13.6412478 C177.882339,13.0920656 178.257704,12.466456 178.52,11.7912478 C178.92,10.6712478 179.254,9.53024783 179.52,8.37124783 L180.29,4.83124783 L182.16,4.83124783 C182.215091,4.57188023 182.292033,4.31763981 182.39,4.07124783 L182.32,3.95124783 C182.084824,3.98780586 181.847787,4.01117572 181.61,4.02124783 C181.083,4.05424783 180.75,4.05424783 180.61,4.02124783 L180.49,4.02124783 C180.601131,3.36456268 180.744639,2.7137693 180.92,2.07124783 C180.967004,1.88456406 181.034061,1.70351135 181.12,1.53124783 C181.18381,1.41579412 181.276942,1.31921255 181.39,1.25124783 C181.495203,1.18625393 181.61634,1.15164315 181.74,1.15124783 C181.931218,1.16251349 182.115177,1.22846107 182.27,1.34124783 C182.51,1.51724783 182.714,1.73724783 182.87,1.99124783 L183.09,1.99124783 C183.182009,1.35895496 183.319023,0.734034336 183.5,0.121247829 C183.309032,0.0448564315 183.105659,0.00418193483 182.9,0.00124782898 C182.665023,-0.00750597932 182.430607,0.0298646216 182.21,0.111247829 C181.859322,0.307538271 181.52492,0.531587258 181.21,0.781247829 C180.712942,1.13792676 180.238682,1.52534997 179.79,1.94124783 C179.548696,2.15780925 179.342861,2.41088592 179.18,2.69124783 C179.060153,2.96681668 178.972896,3.25543791 178.92,3.55124783 C178.92,3.74124783 178.85,3.86124783 178.82,3.94124783 C178.563949,4.05397735 178.299891,4.14756722 178.03,4.22124783 C177.71,4.31424783 177.47,4.39124783 177.31,4.45124783 L177.24,4.82124783 L177.68,4.82124783 L177.68,4.83124783 Z M76.07,21.3212478 L74.74,21.3212478 C74.7521631,21.8926992 74.6950809,22.4635209 74.57,23.0212478 C74.5399245,23.1800083 74.4304041,23.3121882 74.28,23.3712478 C73.467562,23.5352435 72.6376303,23.5957243 71.81,23.5512478 C71.357,23.5512478 70.487,23.5142478 69.2,23.4412478 L69.2,21.3612478 C69.2,18.7412478 69.257,16.9312478 69.37,15.9312478 L70.96,15.8612478 L72.39,15.8612478 C73.1667633,15.8517471 73.9429185,15.9086206 74.71,16.0312478 C75.1463561,16.078005 75.5720436,16.1962516 75.97,16.3812478 C76.0333866,16.4125166 76.0831718,16.4658579 76.11,16.5312478 C76.173,16.7932478 76.204,17.0612478 76.2,17.3312478 C76.26,18.1442478 76.29,18.6712478 76.29,18.9112478 L77.52,18.9112478 C77.52,18.2442478 77.567,17.4682478 77.66,16.5812478 C77.753,15.6942478 77.85,14.9612478 77.95,14.3812478 L77.81,14.1712478 C76.8468529,14.0676339 75.8786973,14.0175569 74.91,14.0210578 L67.63,14.1612478 L62.29,14.0210578 L62.29,15.3212478 C62.89,15.3442478 63.487,15.4012478 64.08,15.4912478 C64.233,15.5152478 64.379,15.5692478 64.51,15.6512478 C64.5805334,15.7187707 64.6292848,15.8058268 64.65,15.9012478 C64.7666176,16.4434107 64.8236228,16.9966966 64.82,17.5512478 C64.913,20.2182478 64.96,21.6312478 64.96,21.7912478 L64.96,28.0212478 C64.96,28.5542478 64.933,29.4342478 64.88,30.6612478 C64.827,31.8882478 64.787,32.6182478 64.76,32.8512478 C64.7491165,33.1268456 64.6774033,33.3966237 64.55,33.6412478 C64.4928551,33.7204318 64.4124653,33.7798503 64.32,33.8112478 C63.6520349,33.9488036 62.9719784,34.0191542 62.29,34.0212478 L62.29,35.2712478 C64.15,35.1982478 65.51,35.1612478 66.37,35.1612478 L72.29,35.2412478 L72.29,34.0212478 C71.4918739,33.99257 70.6966646,33.9090396 69.91,33.7712478 C69.7579683,33.7291994 69.624268,33.6377202 69.53,33.5112478 C69.3647436,32.9702025 69.2837949,32.4069343 69.29,31.8412478 C69.23,30.8812478 69.2,29.2142478 69.2,26.8412478 L69.2,25.1312478 L70.41,25.1312478 C71.59,25.1052478 72.77,25.1712478 73.94,25.3312478 C74.1527286,25.3478248 74.3486903,25.4530634 74.48,25.6212478 C74.6883422,26.3623936 74.7761298,27.1322236 74.74,27.9012478 L76.07,27.9012478 L76.07,21.3212478 Z M84.49,35.1012478 C85.157,35.1012478 86.317,35.1212478 87.97,35.1612478 L91.53,35.2412478 C92.823,35.2412478 93.777,35.2142478 94.39,35.1612478 C94.693546,35.1412537 94.9947236,35.0944038 95.29,35.0212478 C95.29,34.8282478 95.337,34.2542478 95.43,33.3012478 L95.81,30.2412478 L95.81,29.7412478 L94.58,29.7412478 C94.387,30.7142478 94.19,31.5882478 93.99,32.3612478 C93.9464105,32.5650454 93.857552,32.7564329 93.73,32.9212478 C93.4996866,33.0380286 93.2477845,33.1061102 92.99,33.1212478 C91.6654254,33.3123889 90.3282462,33.4026485 88.99,33.3912478 C88.483,33.3912478 87.533,33.3542478 86.14,33.2812478 L86.14,30.7012478 L86.14,26.4112478 L86.14,22.0412478 C86.14,20.3482478 86.163,18.9442478 86.21,17.8312478 C86.1885044,17.2034572 86.2152497,16.5749428 86.29,15.9512478 C86.3296649,15.8247514 86.4152958,15.7177128 86.53,15.6512478 C87.2086999,15.4546091 87.9136099,15.3635442 88.62,15.3812478 L88.62,14.0212478 C86.973,14.0942478 85.233,14.1312478 83.4,14.1312478 C81.753,14.1312478 80.29,14.0942478 79.01,14.0212478 L79.01,15.3512478 C79.7948655,15.3162757 80.5798463,15.4177818 81.33,15.6512478 C81.4389867,15.7077556 81.5215379,15.8046636 81.56,15.9212478 C81.71,17.0012478 81.774,18.0912478 81.75,19.1812478 L81.75,25.0912478 C81.75,27.2642478 81.73,29.1242478 81.69,30.6712478 C81.65,32.2182478 81.603,33.1182478 81.55,33.3712478 C81.5417733,33.4330179 81.5176534,33.4915947 81.48,33.5412478 C81.3621929,33.6647562 81.2233661,33.7663368 81.07,33.8412478 C80.7161357,34.0609034 80.348736,34.2579632 79.97,34.4312478 L79.97,35.2112478 C81.97,35.1182478 83.473,35.0712478 84.48,35.0712478 L84.49,35.1012478 Z M97.55,30.9012478 C98.4393,32.4696392 99.7763274,33.7370298 101.39,34.5412478 C103.214987,35.4099562 105.219516,35.8348478 107.24,35.7812478 C109.154301,35.8198822 111.057383,35.480046 112.84,34.7812478 C114.034977,34.2734262 115.118763,33.5361801 116.03,32.6112478 C116.95229,31.6906532 117.677069,30.5915751 118.16,29.3812478 C118.831161,27.7023354 119.170749,25.9093098 119.16,24.1012478 C119.160247,23.0634932 119.035825,22.0294664 118.79,21.0212478 C118.578446,20.1252174 118.24181,19.2634286 117.79,18.4612478 C116.665907,16.6074917 114.939804,15.1955464 112.9,14.4612478 C111.287695,13.9285454 109.597873,13.6683128 107.9,13.6912478 C106.164166,13.6737609 104.437436,13.9440905 102.79,14.4912478 C100.164085,15.4316599 98.0599819,17.4412781 97,20.0212478 C96.4104369,21.5618186 96.1251728,23.2020875 96.16,24.8512478 C96.0849793,26.9389398 96.5645945,29.0092213 97.55,30.8512478 L97.55,30.9012478 Z M101.55,19.5112478 C101.940809,18.2649821 102.736101,17.1846521 103.81,16.4412478 C104.934628,15.7382482 106.244726,15.3898177 107.57,15.4412478 C108.644823,15.3930595 109.714449,15.6166148 110.68,16.0912478 C111.481493,16.5612593 112.165447,17.2075956 112.68,17.9812478 C113.29339,18.8956255 113.740269,19.9112599 114,20.9812478 C114.319066,22.2495072 114.473668,23.5535407 114.46,24.8612478 C114.507045,26.6522383 114.218756,28.4362328 113.61,30.1212478 C113.188936,31.3604986 112.374205,32.4280781 111.29,33.1612478 C110.259629,33.7747318 109.079034,34.0897879 107.88,34.0712478 C106.618602,34.08811 105.379094,33.7409089 104.31,33.0712478 C103.167199,32.2617323 102.301316,31.1200244 101.83,29.8012478 C101.11577,27.9358285 100.775969,25.9479937 100.83,23.9512478 C100.811004,22.4259955 101.047611,20.9083333 101.53,19.4612478 L101.55,19.5112478 Z M121.29,15.6212478 C121.388117,15.683468 121.464878,15.7741854 121.51,15.8812478 C121.658916,16.6282231 121.719332,17.3901384 121.69,18.1512478 L121.77,21.3512478 L121.77,26.9712478 L121.65,31.3912478 C121.638069,31.9904948 121.587967,32.5883726 121.5,33.1812478 C121.48836,33.3291582 121.443954,33.4726252 121.37,33.6012478 C121.302544,33.6789133 121.211001,33.7317264 121.11,33.7512478 C120.449628,33.8666088 119.780368,33.923496 119.11,33.9212478 L119.11,35.2512478 C120.443,35.1782478 121.9,35.1412478 123.48,35.1412478 C125.247,35.1412478 126.99,35.1782478 128.71,35.2512478 L128.71,33.9112478 C128.122082,33.9155144 127.534416,33.8854633 126.95,33.8212478 C126.794119,33.7978383 126.644508,33.7434343 126.51,33.6612478 C126.426476,33.6052216 126.357836,33.5297173 126.31,33.4412478 C126.196331,33.0856866 126.138971,32.7145351 126.14,32.3412478 C126.14,32.0612478 126.11,30.8812478 126.05,28.8012478 L126.05,23.9912478 C126.05,23.0312478 126.08,21.1242478 126.14,18.2712478 C126.14,16.9982478 126.17,16.1782478 126.23,15.8112478 C126.705748,15.7306381 127.187472,15.6904944 127.67,15.6912478 C128.43389,15.6547614 129.198954,15.7322788 129.94,15.9212478 C130.608149,16.1738704 131.18363,16.6237914 131.59,17.2112478 C132.056,17.8932478 132.29,18.7062478 132.26,19.5312478 C132.270648,20.4032439 132.049805,21.2624605 131.62,22.0212478 C131.273272,22.6846672 130.727838,23.2231089 130.06,23.5612478 C129.185825,23.8879187 128.24951,24.0143554 127.32,23.9312478 L127.15,24.4312478 C127.512,24.7152478 127.829,25.0522478 128.09,25.4312478 C128.757,26.3112478 129.543,27.5182478 130.45,29.0512478 L133.69,34.3912478 C133.847,34.6612478 133.968,34.9502478 134.05,35.2512478 C134.85,35.2112478 135.653,35.1912478 136.46,35.1912478 C137.127,35.1912478 138.25,35.2112478 139.83,35.2512478 L139.83,33.9112478 C139.492286,33.9278876 139.154189,33.887316 138.83,33.7912478 C138.640734,33.7018105 138.470858,33.5761021 138.33,33.4212478 C138.157,33.2412478 137.693,32.6512478 136.94,31.6512478 L135.94,30.1512478 L133.59,26.6512478 L133.42,26.3612478 C133.36,26.2612478 133.18,25.9812478 132.85,25.5012478 C132.52,25.0212478 132.24,24.5712478 131.99,24.1212478 C133.359477,23.677343 134.573738,22.8516456 135.49,21.7412478 C136.231926,20.7900892 136.633338,19.617542 136.63,18.4112478 C136.658938,17.4689931 136.366211,16.5449628 135.8,15.7912478 C135.304424,15.1140989 134.602678,14.6158594 133.8,14.3712478 C132.63314,14.1037595 131.436398,13.9894639 130.24,14.0312478 C129.42,14.0312478 128.387,14.0612478 127.14,14.1212478 C126.38,14.1682478 125.473,14.1912478 124.42,14.1912478 L121.54,14.1912478 L119.12,14.1212478 L119.12,15.3212478 C119.869955,15.3234521 120.61636,15.4243177 121.34,15.6212478 L121.29,15.6212478 Z M145.44,14.1612478 C143.793,14.1612478 142.333,14.1242478 141.06,14.0512478 L141.06,15.3812478 C141.702029,15.3860191 142.343188,15.429431 142.98,15.5112478 C143.113124,15.5344485 143.237506,15.5931847 143.34,15.6812478 C143.415,15.7666625 143.466668,15.8699994 143.49,15.9812478 C143.6,16.7802478 143.66,17.5852478 143.67,18.3912478 L143.67,28.6012478 C143.67,29.6342478 143.63,30.7542478 143.55,31.9612478 C143.5,32.7912478 143.46,33.2612478 143.43,33.3812478 C143.407467,33.4730802 143.358846,33.5564316 143.29,33.6212478 C143.163918,33.7143954 143.015692,33.772996 142.86,33.7912478 C142.7,33.7912478 142.093,33.8282478 141.04,33.9012478 L141.04,35.2312478 C142.488663,35.1533297 143.93925,35.1166482 145.39,35.1212478 C147.263,35.1212478 149.02,35.1582478 150.66,35.2312478 L150.66,33.9112478 C150.055166,33.9159344 149.450637,33.882535 148.85,33.8112478 C148.685439,33.7852758 148.528485,33.7238592 148.39,33.6312478 C148.285674,33.5472817 148.211878,33.4313172 148.18,33.3012478 C148.049047,32.6431353 147.998676,31.9715311 148.03,31.3012478 L148.03,22.4012478 C148.03,22.2082478 148.05,20.8742478 148.09,18.4012478 L148.09,16.9112478 C148.0923,16.5724859 148.142807,16.2357758 148.24,15.9112478 C148.269512,15.8123688 148.328894,15.7250425 148.41,15.6612478 C148.533139,15.5762827 148.672868,15.5183462 148.82,15.4912478 C149.427145,15.4168502 150.038314,15.3801133 150.65,15.3812478 L150.65,14.0212478 C149.003,14.0942478 147.257,14.1312478 145.41,14.1312478 L145.44,14.1612478 Z M157.15,35.1612478 L161.64,35.2712478 C163.403666,35.3092888 165.16311,35.0834598 166.86,34.6012478 C168.323929,34.1355162 169.682729,33.3881761 170.86,32.4012478 C172.103737,31.3698367 173.098481,30.0708575 173.77,28.6012478 C174.498305,26.9800666 174.860228,25.2182518 174.83,23.4412478 C174.846112,22.0165957 174.605609,20.6006795 174.12,19.2612478 C173.827911,18.4881651 173.405086,17.7710536 172.87,17.1412478 C172.301479,16.4683302 171.625718,15.8939335 170.87,15.4412478 C169.997221,14.9500932 169.046844,14.6118809 168.06,14.4412478 C166.643772,14.1948825 165.207246,14.0843805 163.77,14.1112478 C162.99,14.1112478 161.957,14.1282478 160.67,14.1612478 C158.883,14.2212478 157.667,14.2512478 157.02,14.2512478 L151.57,14.0212478 L151.57,15.2412478 C152.663,15.3812478 153.297,15.4712478 153.47,15.5112478 C153.610913,15.5348315 153.742486,15.5971554 153.85,15.6912478 C153.905651,15.7510631 153.946721,15.8229344 153.97,15.9012478 C154.115,16.8042478 154.182,17.7172478 154.17,18.6312478 C154.223,21.2042478 154.25,23.1582478 154.25,24.4912478 L154.25,27.0212478 C154.25,30.0612478 154.193,32.2582478 154.08,33.6112478 C153.76,33.8542478 153.426,34.0772478 153.08,34.2812478 L152.66,34.5212478 L152.66,35.2512478 L157.24,35.1412478 L157.15,35.1612478 Z M158.46,27.4512478 L158.46,23.9512478 C158.46,19.9912478 158.513,17.2982478 158.62,15.8712478 C159.470851,15.7438211 160.329679,15.6769863 161.19,15.6712478 C162.752225,15.6040196 164.315177,15.7863078 165.82,16.2112478 C166.809183,16.5540009 167.684633,17.1630092 168.35,17.9712478 C169.026259,18.7973771 169.517319,19.7590361 169.79,20.7912478 C170.084452,21.880079 170.232422,23.0033076 170.23,24.1312478 C170.238634,25.3221106 170.0907,26.5089424 169.79,27.6612478 C169.5387,28.6627761 169.123062,29.615701 168.56,30.4812478 C168.119705,31.1735747 167.557229,31.7801004 166.9,32.2712478 C166.290589,32.6895709 165.614193,33.0007129 164.9,33.1912478 C163.73376,33.4882405 162.533324,33.6294684 161.33,33.6112478 C160.428243,33.6057043 159.528496,33.5254295 158.64,33.3712478 C158.533,32.4112478 158.48,30.4312478 158.48,27.4312478 L158.46,27.4512478 Z M175.63,35.1612478 L179.12,35.2712478 L179.12,34.0212478 C178.389934,34.0534984 177.659664,33.9622146 176.96,33.7512478 C176.794041,33.6368329 176.70238,33.4420527 176.72,33.2412478 C176.868,32.3512478 177.12,31.4822478 177.47,30.6512478 L178.13,28.8412478 L185.94,28.8412478 L187.29,32.1212478 C187.475,32.5122478 187.593,32.9312478 187.64,33.3612478 C187.654371,33.5372993 187.564415,33.7054775 187.41,33.7912478 C186.715269,33.9535683 186.003377,34.0308019 185.29,34.0212478 L185.29,35.2712478 L190.6,35.1612478 L194.81,35.2712478 L194.81,34.0212478 L194.14,33.9512478 C193.843855,33.9423997 193.549211,33.9055691 193.26,33.8412478 C193.145642,33.8026418 193.040218,33.7414278 192.95,33.6612478 C192.832223,33.548363 192.734199,33.416537 192.66,33.2712478 L192.05,31.8812478 L191.11,29.8112478 L184.39,13.9612478 L182.23,13.9612478 L180.9,17.4012478 L176.95,27.1512478 C176.45118,28.3897468 175.947844,29.6264217 175.44,30.8612478 C175.110426,31.6328697 174.777088,32.4028789 174.44,33.1712478 C174.351893,33.3387398 174.237051,33.4907361 174.1,33.6212478 C173.982962,33.7186642 173.846647,33.7902297 173.7,33.8312478 C173.217,33.9162478 172.73,33.9692478 172.24,33.9912478 L172.24,35.2412478 L175.71,35.1312478 L175.63,35.1612478 Z M181.99,19.2212478 L185.23,27.0212478 L178.88,27.0212478 L182,19.1912478 L181.99,19.2212478 Z M63.08,1.83124783 C63.166533,1.87348646 63.2393403,1.93935972 63.29,2.02124783 C63.34,2.15224783 63.367,2.29124783 63.37,2.43124783 L63.37,8.09124783 C63.4524257,8.67317172 63.7526416,9.20212361 64.21,9.57124783 C64.5069358,9.80475494 64.846632,9.97799997 65.21,10.0812478 C65.793505,10.2579674 66.4003372,10.3456209 67.01,10.3412478 C67.4992768,10.3475905 67.9871249,10.2870301 68.46,10.1612478 C68.8536066,10.0551705 69.2234911,9.87531843 69.55,9.63124783 C69.8482924,9.4174398 70.1000484,9.14527107 70.29,8.83124783 C70.4620333,8.52168809 70.573999,8.18239821 70.62,7.83124783 C70.6730981,7.44015356 70.6998252,7.04593012 70.7,6.65124783 L70.7,5.12124783 L70.7,3.32124783 C70.7064176,2.88588506 70.7431733,2.45149906 70.81,2.02124783 C70.8287017,1.94673256 70.8707511,1.88015434 70.93,1.83124783 C71.1665232,1.74475472 71.4190031,1.71063581 71.67,1.73124783 L71.67,1.22124783 L70.29,1.26124783 L68.74,1.26124783 L68.74,1.74124783 C69.048681,1.72953997 69.3569444,1.77357759 69.65,1.87124783 C69.7165991,1.90131172 69.7699361,1.95464877 69.8,2.02124783 C69.873,2.34924783 69.903,2.68524783 69.89,3.02124783 L69.89,6.32124783 C69.9319573,6.94293145 69.8573427,7.56698051 69.67,8.16124783 C69.5086795,8.49395134 69.2461239,8.76700911 68.92,8.94124783 C68.4840832,9.16215523 67.9980907,9.26555788 67.51,9.24124783 C67.0926258,9.25135845 66.677553,9.17650926 66.29,9.02124783 C65.9921761,8.89907219 65.7354411,8.69437806 65.55,8.43124783 C65.3670136,8.12866094 65.2637931,7.78459271 65.25,7.43124783 L65.25,3.82124783 C65.2149263,3.24114461 65.228306,2.6591265 65.29,2.08124783 C65.299687,1.99263439 65.3470513,1.91247941 65.42,1.86124783 C65.6969247,1.75492106 65.9946316,1.71385804 66.29,1.74124783 L66.29,1.22124783 L65.17,1.22124783 L64.29,1.26124783 L62.29,1.22124783 L62.29,1.74124783 L63.12,1.83124783 L63.08,1.83124783 Z M74.37,10.1012478 L77.42,10.1012478 L77.42,9.56124783 L77.29,9.56124783 C77.0892459,9.55539113 76.8889544,9.53870017 76.69,9.51124783 C76.6151785,9.50619161 76.5428909,9.48209575 76.48,9.44124783 C76.4388624,9.41095823 76.4075595,9.36922097 76.39,9.32124783 C76.336226,9.02427704 76.30945,8.72304742 76.31,8.42124783 L76.31,3.22124783 C78.817,6.28124783 80.753,8.57424783 82.12,10.1012478 L83.21,10.2612478 L83.29,10.2112478 C83.23,9.61124783 83.2,7.90424783 83.2,5.09124783 L83.2,3.42124783 C83.1793665,2.9327777 83.2095284,2.44348545 83.29,1.96124783 C83.2992018,1.91997389 83.3243687,1.8840211 83.36,1.86124783 C83.66,1.76724783 83.976,1.72924783 84.29,1.75124783 L84.29,1.22124783 L81.29,1.22124783 L81.29,1.75124783 C81.629,1.72124783 81.97,1.76624783 82.29,1.88124783 C82.364473,1.96699727 82.4037673,2.0777357 82.4,2.19124783 C82.453,2.59124783 82.48,3.92424783 82.48,6.19124783 L82.48,7.66124783 C81.893,7.05424783 81.153,6.21824783 80.26,5.15124783 C79.1635417,3.86578998 78.0965966,2.55544805 77.06,1.22124783 L74.37,1.22124783 L74.37,1.75124783 C74.641,1.76124783 74.912,1.78724783 75.18,1.83124783 C75.2546443,1.84540677 75.3238863,1.88002778 75.38,1.93124783 C75.4268163,1.99277958 75.4577296,2.06491069 75.47,2.14124783 C75.486,2.34124783 75.486,2.54124783 75.47,2.74124783 L75.47,7.96124783 C75.437,8.58124783 75.407,8.97124783 75.38,9.13124783 C75.3719892,9.21630277 75.3446243,9.29839737 75.3,9.37124783 C75.2676718,9.40793532 75.2262993,9.43551694 75.18,9.45124783 C74.8950455,9.49224353 74.6078334,9.51562127 74.32,9.52124783 L74.32,10.0612478 L74.37,10.1012478 Z M89,1.26124783 L87.17,1.26124783 L87.17,1.78124783 C87.437,1.78124783 87.705,1.79824783 87.97,1.83124783 C88.0254205,1.84055394 88.077269,1.8647499 88.12,1.90124783 C88.1513345,1.93839203 88.1720634,1.98330458 88.18,2.03124783 C88.237,2.35824783 88.274,2.68924783 88.29,3.02124783 L88.29,7.32124783 C88.29,7.75424783 88.27,8.22424783 88.23,8.73124783 L88.23,9.33124783 C88.2203781,9.36980145 88.19949,9.40461506 88.17,9.43124783 C88.1170297,9.46969349 88.0550272,9.49380559 87.99,9.50124783 L87.23,9.50124783 L87.23,10.0612478 L91.26,10.0612478 L91.26,9.54124783 C91.0069212,9.55730839 90.7530788,9.55730839 90.5,9.54124783 C90.4209045,9.51982889 90.3486094,9.47851739 90.29,9.42124783 C90.2454706,9.38570303 90.2138498,9.3365152 90.2,9.28124783 C90.1449522,9.00148248 90.1247985,8.71597195 90.14,8.43124783 L90.14,4.72124783 L90.14,3.04124783 L90.14,2.42124783 C90.1387143,2.28627907 90.1555308,2.15174722 90.19,2.02124783 C90.2066632,1.96987746 90.2424766,1.92690137 90.29,1.90124783 C90.3411053,1.86620405 90.3990364,1.84235008 90.46,1.83124783 C90.7164227,1.81542214 90.9735773,1.81542214 91.23,1.83124783 L91.23,1.22124783 L89.03,1.22124783 L89,1.26124783 Z M99.14,10.1412478 C99.4,9.42124783 99.893,8.18824783 100.62,6.44124783 L101.48,4.44124783 L101.93,3.39124783 C102.104219,2.8810819 102.346399,2.39672257 102.65,1.95124783 C102.880544,1.86611813 103.124242,1.82211714 103.37,1.82124783 L103.37,1.22124783 L100.39,1.22124783 L100.39,1.78124783 L101.32,1.78124783 C101.356856,1.79902561 101.388024,1.82673015 101.41,1.86124783 C101.424001,1.91366234 101.424001,1.96883332 101.41,2.02124783 C101.414698,2.07113748 101.414698,2.12135818 101.41,2.17124783 C101.37,2.34424783 101.253,2.67824783 101.06,3.17124783 C100.913477,3.5725431 100.763471,3.97255819 100.61,4.37124783 L99.2,7.86124783 L97.6,4.02124783 L97.6,3.90124783 L97.29,3.29124783 C97.1049063,2.90500719 96.9640139,2.49910293 96.87,2.08124783 C96.8648985,2.02340594 96.8828714,1.9658928 96.92,1.92124783 C96.9729675,1.873011 97.0391224,1.84167445 97.11,1.83124783 C97.3640741,1.78601476 97.6219859,1.76591773 97.88,1.77124783 L97.88,1.22124783 L93.75,1.22124783 L93.75,1.78124783 C94.0179849,1.76609682 94.2863478,1.80346381 94.54,1.89124783 C94.703,2.04824783 94.829,2.24024783 94.91,2.45124783 C95.07,2.77124783 95.503,3.77124783 96.21,5.45124783 L97.11,7.60124783 L98.11,10.1312478 L99.11,10.1312478 L99.14,10.1412478 Z M108.29,10.0212478 L111.37,10.0212478 C111.753,10.0412478 112.137,10.0412478 112.52,10.0212478 L112.6,9.94124783 C112.610089,9.24926007 112.656821,8.55829229 112.74,7.87124783 L112.29,7.87124783 C112.243928,8.26088553 112.163618,8.64570661 112.05,9.02124783 C112.035033,9.06514121 112.007147,9.1034849 111.97,9.13124783 C111.742885,9.2162331 111.502493,9.26024857 111.26,9.26124783 L108.79,9.26124783 L108.79,5.87124783 C109.123083,5.85297928 109.456917,5.85297928 109.79,5.87124783 C110.167892,5.86607728 110.545635,5.88947727 110.92,5.94124783 C111.03,5.95124783 111.128,6.01124783 111.19,6.10124783 C111.285,6.39424783 111.319,6.70424783 111.29,7.01124783 L111.8,7.01124783 L111.8,4.23124783 L111.29,4.23124783 C111.292963,4.50059842 111.262736,4.7692884 111.2,5.03124783 C111.185545,5.08350301 111.153823,5.12932424 111.11,5.16124783 C110.977673,5.18440976 110.842327,5.18440976 110.71,5.16124783 L108.81,5.16124783 L108.81,3.84124783 C108.805346,3.2300362 108.835394,2.61905322 108.9,2.01124783 L110.05,2.01124783 C110.460986,2.01158499 110.87163,2.03495497 111.28,2.08124783 C111.454524,2.08465259 111.627114,2.11849376 111.79,2.18124783 C111.830688,2.21421079 111.85891,2.26007107 111.87,2.31124783 C111.914,2.61624783 111.934,2.92324783 111.93,3.23124783 L112.42,3.23124783 L112.48,2.31124783 L112.6,1.39124783 L112.6,1.31124783 L112.29,1.22124783 L105.83,1.22124783 L105.83,1.76124783 C106.14,1.75824783 106.45,1.79524783 106.75,1.87124783 C106.794399,1.89129043 106.829957,1.92684846 106.85,1.97124783 C106.92,2.25924783 106.95,2.55524783 106.94,2.85124783 L106.94,6.94124783 C106.94,7.27424783 106.923,7.80424783 106.89,8.53124783 C106.89,8.93124783 106.89,9.22124783 106.83,9.39124783 C106.638,9.53824783 106.43,9.66124783 106.21,9.76124783 L106.21,10.1012478 L108.29,10.0212478 Z M116.64,1.84124783 C116.680861,1.86749339 116.712365,1.9059991 116.73,1.95124783 C116.798,2.28024783 116.825,2.61624783 116.81,2.95124783 L116.81,6.62124783 L116.76,8.47124783 C116.756338,8.72228695 116.736296,8.97281945 116.7,9.22124783 C116.697407,9.28429604 116.680296,9.34589492 116.65,9.40124783 C116.620707,9.43251384 116.582147,9.45354641 116.54,9.46124783 C116.25924,9.5092417 115.974829,9.53266373 115.69,9.53124783 L115.69,10.0912478 L119.71,10.0912478 L119.71,9.54124783 C119.463542,9.5556101 119.216458,9.5556101 118.97,9.54124783 C118.90595,9.53008707 118.844762,9.50629161 118.79,9.47124783 C118.756658,9.44792143 118.729256,9.41709475 118.71,9.38124783 C118.663504,9.23234478 118.639901,9.0772415 118.64,8.92124783 L118.64,7.43124783 L118.64,5.43124783 L118.64,3.03124783 L118.64,2.03124783 C118.838247,1.99780996 119.038953,1.98108448 119.24,1.98124783 C119.576516,1.96187073 119.913985,1.99561756 120.24,2.08124783 C120.52,2.18724783 120.76,2.37524783 120.93,2.62124783 C121.13,2.91524783 121.229,3.26624783 121.21,3.62124783 C121.20664,3.97213678 121.113702,4.31635129 120.94,4.62124783 C120.797254,4.9010049 120.569757,5.12850154 120.29,5.27124783 C119.923542,5.41025047 119.530484,5.4649368 119.14,5.43124783 L119.07,5.64124783 C119.22,5.76024783 119.352,5.90124783 119.46,6.06124783 C119.733,6.42824783 120.067,6.93424783 120.46,7.58124783 L121.82,9.82124783 C121.885,9.93424783 121.935,10.0552478 121.97,10.1812478 L124.39,10.1812478 L124.39,9.54124783 C124.25484,9.54633187 124.11975,9.52944568 123.99,9.49124783 C123.909792,9.45284151 123.838318,9.39838509 123.78,9.33124783 C123.707,9.25824783 123.513,9.01124783 123.2,8.59124783 L122.77,7.96124783 L121.77,6.49124783 L121.7,6.37124783 L121.5,6.02124783 C121.37,5.82124783 121.24,5.63124783 121.14,5.44124783 C121.711974,5.25376778 122.218506,4.90682848 122.6,4.44124783 C122.913,4.04124783 123.082,3.54824783 123.08,3.04124783 C123.091901,2.64543687 122.968437,2.25740566 122.73,1.94124783 C122.521358,1.65872557 122.226553,1.45165986 121.89,1.35124783 C121.401553,1.23987028 120.900645,1.19280507 120.4,1.21124783 L115.75,1.21124783 L115.75,1.74124783 C116.064,1.74324783 116.377,1.78724783 116.68,1.87124783 L116.64,1.84124783 Z M133.03,2.47124783 C133.058261,2.19904362 133.101662,1.9286248 133.16,1.66124783 L133.11,1.51124783 C132.760642,1.34589773 132.390673,1.22818041 132.01,1.16124783 C131.581351,1.08083778 131.146125,1.0406631 130.71,1.0412195 C130.286045,1.03989687 129.863318,1.0868666 129.45,1.18124783 C129.057694,1.26938052 128.684866,1.42867971 128.35,1.65124783 C128.009691,1.88663145 127.737251,2.20735241 127.56,2.58124783 C127.358804,2.98840007 127.256045,3.4371145 127.26,3.89124783 C127.258713,4.21559262 127.316313,4.53747731 127.43,4.84124783 C127.537425,5.1260379 127.708434,5.38255203 127.93,5.59124783 C128.182,5.81724783 128.484,5.98124783 128.81,6.07124783 C129.05,6.14424783 129.553,6.26124783 130.32,6.42124783 C130.706364,6.49611415 131.082374,6.61697444 131.44,6.78124783 C131.64,6.88324783 131.804,7.04324783 131.91,7.24124783 C132.016,7.45524783 132.067,7.69224783 132.06,7.93124783 C132.065415,8.2280567 131.993014,8.52110968 131.85,8.78124783 C131.690758,9.04812022 131.448365,9.25538402 131.16,9.37124783 C130.819194,9.51778609 130.450885,9.58940171 130.08,9.58124783 C129.635397,9.58580932 129.196274,9.48288972 128.8,9.28124783 C128.465326,9.13166024 128.178203,8.89296734 127.97,8.59124783 C127.919331,8.21342093 127.895937,7.83243551 127.9,7.45124783 L127.39,7.45124783 C127.411262,8.18993156 127.344119,8.92850778 127.19,9.65124783 C127.61733,9.86574603 128.066611,10.0333879 128.53,10.1512478 C128.985905,10.2552425 129.452405,10.3055841 129.92,10.3012478 C130.543502,10.3181505 131.164531,10.2163425 131.75,10.0012478 C132.09,9.86324783 132.403,9.67124783 132.68,9.43124783 C132.966557,9.19361818 133.20719,8.90553632 133.39,8.58124783 C133.623,8.14124783 133.74,7.64924783 133.73,7.15124783 C133.733971,6.86998734 133.693471,6.58986613 133.61,6.32124783 C133.543542,6.09811284 133.438633,5.88829546 133.3,5.70124783 C133.162447,5.52718022 132.992697,5.38119501 132.8,5.27124783 C132.539254,5.12715813 132.259988,5.01948936 131.97,4.95124783 L131.12,4.79124783 L130.12,4.60124783 C129.864808,4.54238856 129.619096,4.44814317 129.39,4.32124783 C129.226933,4.2234844 129.095115,4.08125988 129.01,3.91124783 C128.912183,3.69819217 128.864299,3.46561598 128.87,3.23124783 C128.875547,2.84583036 129.046798,2.48146756 129.34,2.23124783 C129.713671,1.91809047 130.193424,1.76055951 130.68,1.79124783 C131.054775,1.7869706 131.426223,1.86194184 131.77,2.01124783 C132.036,2.11124783 132.27,2.28124783 132.45,2.50124783 C132.49,2.83324783 132.51,3.16724783 132.51,3.50124783 L133.04,3.50124783 C133.04,3.07124783 133.04,2.72124783 133.1,2.50124783 L133.03,2.47124783 Z M138.67,1.24124783 L136.84,1.24124783 L136.84,1.78124783 C137.107426,1.7819338 137.37457,1.79863034 137.64,1.83124783 C137.695421,1.84055394 137.747269,1.8647499 137.79,1.90124783 C137.821335,1.93839203 137.842063,1.98330458 137.85,2.03124783 C137.897561,2.36257927 137.92428,2.69656911 137.93,3.03124783 L137.93,7.32124783 C137.93,7.75424783 137.913,8.22424783 137.88,8.73124783 L137.88,9.33124783 C137.870378,9.36980145 137.84949,9.40461506 137.82,9.43124783 C137.76703,9.46969349 137.705027,9.49380559 137.64,9.50124783 L136.88,9.50124783 L136.88,10.0612478 L140.91,10.0612478 L140.91,9.54124783 C140.656921,9.55730839 140.403079,9.55730839 140.15,9.54124783 C140.08162,9.52865694 140.016792,9.5013608 139.96,9.46124783 C139.914891,9.4262299 139.88313,9.37682391 139.87,9.32124783 C139.81485,9.04149613 139.794695,8.75597283 139.81,8.47124783 L139.81,4.72124783 L139.81,3.04124783 L139.81,2.42124783 C139.818573,2.28492563 139.845482,2.150381 139.89,2.02124783 C139.903434,1.98197903 139.927701,1.94731111 139.96,1.92124783 C140.011246,1.88646418 140.06912,1.86263359 140.13,1.85124783 C140.383097,1.83578132 140.636903,1.83578132 140.89,1.85124783 L140.89,1.22124783 L138.69,1.22124783 L138.67,1.24124783 Z M147.51,10.0212478 C148.077,10.0212478 148.77,10.0382478 149.59,10.0712478 L149.59,9.58124783 C149.282823,9.59141167 148.975908,9.55431206 148.68,9.47124783 C148.585821,9.42142235 148.516886,9.33434683 148.49,9.23124783 C148.423091,8.68396257 148.399685,8.13223349 148.42,7.58124783 L148.42,3.78124783 L148.42,2.04124783 L149.33,2.04124783 C149.817,2.04124783 150.233,2.05824783 150.58,2.09124783 C150.64574,2.07552846 150.71426,2.07552846 150.78,2.09124783 C150.827708,2.17362698 150.85513,2.26617578 150.86,2.36124783 C150.907,2.67224783 150.934,2.98624783 150.94,3.30124783 L151.46,3.30124783 L151.46,1.91124783 C151.471427,1.68351306 151.494792,1.45653451 151.53,1.23124783 L151.47,1.17124783 L143.45,1.17124783 L143.39,1.23124783 C143.39,1.44424783 143.41,1.64424783 143.45,1.83124783 C143.49,2.01824783 143.49,2.50824783 143.45,3.30124783 L143.97,3.30124783 C143.977,2.96624783 144.01,2.63124783 144.07,2.30124783 C144.075278,2.22181473 144.103022,2.14551745 144.15,2.08124783 C144.225219,2.04673705 144.307257,2.02964586 144.39,2.03124783 L146.51,2.03124783 L146.51,7.57124783 C146.530334,8.11890621 146.506926,8.66731396 146.44,9.21124783 C146.414494,9.31752247 146.345565,9.40821826 146.25,9.46124783 C145.953234,9.53914432 145.6466,9.57284031 145.34,9.56124783 L145.34,10.0812478 C146.12,10.0482478 146.813,10.0312478 147.42,10.0312478 L147.51,10.0212478 Z M157.91,3.64124783 C157.635572,3.09645833 157.328341,2.56882216 156.99,2.06124783 C156.848078,1.83543723 156.683928,1.62438692 156.5,1.43124783 C156.330481,1.27258159 156.142459,1.13492249 155.94,1.02124783 L155.24,1.19124783 L153.89,1.46124783 L153.89,2.02124783 C154.075853,1.99660255 154.264147,1.99660255 154.45,2.02124783 C154.618,2.13724783 154.769,2.27524783 154.9,2.43124783 C155.271246,2.86254677 155.605746,3.32415758 155.9,3.81124783 C156.353,4.51824783 156.78,5.23424783 157.18,5.96124783 C157.29554,6.1451322 157.37685,6.34840741 157.42,6.56124783 L157.42,9.00124783 C157.423233,9.13139522 157.399396,9.26079525 157.35,9.38124783 C157.306223,9.43278822 157.246318,9.46802689 157.18,9.48124783 C156.898192,9.51891998 156.614306,9.53895897 156.33,9.54124783 L156.33,10.1012478 L160.45,10.1012478 L160.45,9.54124783 C160.16911,9.54725734 159.888194,9.53053615 159.61,9.49124783 C159.536508,9.47590783 159.469897,9.43734321 159.42,9.38124783 C159.359144,9.24222399 159.325211,9.09291834 159.32,8.94124783 C159.3,8.55124783 159.3,8.16124783 159.32,7.77124783 L159.32,6.68124783 C159.305142,6.52159278 159.305142,6.36090288 159.32,6.20124783 C159.36,6.03424783 159.42,5.87324783 159.5,5.72124783 C159.64,5.45424783 160.007,4.85424783 160.6,3.92124783 C161.193,2.98824783 161.757,2.18124783 162.29,1.50124783 L162.29,1.22124783 L161.29,1.22124783 C161.23,1.34124783 161.08,1.61124783 160.85,2.01124783 L159.65,4.13124783 L158.85,5.42124783 C158.75,5.20124783 158.453,4.61424783 157.96,3.66124783 L157.91,3.64124783 Z" id="Shape"></path>
                <path d="M36.21,29.4012478 L36.21,20.7312478 L44.2,20.7312478 L44.2,15.0112478 L36.21,15.0112478 L36.21,6.91124783 L44.98,6.91124783 L44.98,10.0512478 L50.77,10.0512478 L50.77,1.24124783 L27.59,1.24124783 L27.59,6.91124783 L29.77,6.91124783 L29.77,29.4012478 L27.6,29.4012478 L27.6,35.1212478 L38.3,35.1212478 L38.3,29.4012478 L36.21,29.4012478 Z M24.58,22.3112478 L24.58,6.91124783 L26.72,6.91124783 L26.72,1.24124783 L16.01,1.24124783 L16.01,6.91124783 L18.1,6.91124783 L18.1,20.4012478 C18.1,26.0612478 17.45,28.7712478 13.39,28.7712478 C9.33,28.7712478 8.67,26.0212478 8.67,20.4012478 L8.67,6.91124783 L10.74,6.91124783 L10.74,1.24124783 L0,1.24124783 L0,6.91124783 L2.13,6.91124783 L2.13,22.3112478 C2.13,25.6812478 2.13,28.4312478 3.72,30.9112478 C5.49,33.7112478 8.72,35.5012478 13.38,35.5012478 C21.64,35.5012478 24.58,31.1912478 24.58,22.3112478 Z" id="Shape"></path>
            </g>
        </g>
    </g>
</svg>