<?xml version="1.0" encoding="UTF-8"?>
<svg width="399px" height="135px" viewBox="0 0 399 135" version="1.1" xmlns="http://www.w3.org/2000/svg" xmlns:xlink="http://www.w3.org/1999/xlink">
    <title>world_bicycle_relief</title>
    <g id="Page-1" stroke="none" stroke-width="1" fill="none" fill-rule="evenodd">
        <g id="world_bicycle_relief" transform="translate(0.167883, 0.044000)">
            <path d="M117.956117,69.196 L121.752117,63.066 C130.511117,49.343 148.029117,32.992 169.927117,26.277 C158.540117,35.62 148.613117,47.883 141.606117,63.065 L138.978117,69.197 C135.766117,77.372 132.847117,87.883 131.678117,98.686 L138.102117,98.686 C139.270117,88.466 141.898117,77.664 145.693117,69.196 L148.613117,63.066 C156.496117,47.299 169.051117,32.701 185.693117,23.066 C179.270117,33.576 172.263117,51.095 169.343117,63.066 L167.883117,69.196 C166.423117,75.036 164.379117,88.175 163.796117,98.686 L170.219117,98.686 C171.095117,88.175 172.847117,75.912 174.599117,69.196 L176.059117,63.066 C179.854117,49.343 186.861117,32.992 193.869117,22.482 L193.869117,98.978 L200.292117,98.978 L200.292117,22.482 C207.299117,32.992 214.306117,49.342 218.102117,63.065 L219.562117,69.197 C221.314117,75.912 223.066117,88.467 223.942117,98.686 L230.365117,98.686 C229.489117,88.175 227.737117,75.036 225.985117,69.196 L224.525117,63.066 C221.605117,51.095 214.598117,33.576 208.175117,23.066 C224.817117,32.701 237.080117,47.299 245.255117,63.066 L248.175117,69.196 C251.971117,77.664 254.598117,88.466 255.766117,98.686 L262.482117,98.686 C262.482117,98.394 262.190117,98.102 262.190117,97.81 C261.022117,87.3 258.102117,77.08 254.890117,69.197 L252.263117,63.065 C245.255117,48.175 235.620117,35.62 223.941117,26.277 C245.839117,32.992 263.358117,49.051 272.117117,63.065 L275.912117,69.197 C280.876117,78.248 284.087117,88.467 285.839117,98.686 L292.263117,98.686 C285.839117,51.679 245.839117,15.766 197.080117,15.766 C148.321117,15.766 108.321117,51.971 101.898117,98.686 L108.321117,98.686 C109.489117,88.466 112.993117,78.248 117.956117,69.196 L117.956117,69.196 Z" id="Path"></path>
            <path d="M196.788117,9.343 C249.051117,9.343 291.971117,48.467 298.394117,98.686 L307.445117,98.686 C307.737117,98.102 307.737117,97.226 307.737117,96.642 L306.277117,87.883 C305.985117,85.839 303.941117,84.379 302.190117,84.671 L301.898117,84.671 C301.606117,83.795 301.606117,82.92 301.314117,82.336 L301.606117,82.336 C303.358117,81.752 304.233117,79.416 303.650117,77.664 L300.730117,69.197 C300.146117,67.153 298.102117,66.277 296.058117,66.861 L295.766117,66.861 C295.474117,65.985 295.182117,65.401 294.598117,64.525 L294.890117,64.525 C296.642117,63.649 297.226117,61.314 296.058117,59.562 L291.678117,51.971 C290.511117,50.219 288.467117,49.343 286.715117,50.511 C286.131117,49.927 285.839117,49.051 285.255117,48.467 C286.715117,47.299 287.007117,44.963 285.547117,43.211 L279.707117,36.496 C278.248117,35.036 276.204117,34.744 274.452117,35.912 L272.701117,34.16 C273.868117,32.7 273.577117,30.365 272.117117,28.905 L265.401117,23.065 C263.941117,21.605 261.606117,21.898 260.146117,23.357 C259.562117,22.774 258.686117,22.482 258.102117,21.897 C258.978117,20.146 258.394117,18.102 256.642117,16.934 L249.051117,12.554 C247.299117,11.387 244.963117,11.971 244.087117,13.722 C243.212117,13.43 242.627117,13.138 241.752117,12.555 C242.336117,10.803 241.168117,8.759 239.416117,8.175 L230.949117,5.255 C228.905117,4.671 226.861117,5.547 226.277117,7.299 C225.401117,7.007 224.525117,6.715 223.941117,6.715 C224.233117,4.963 222.774117,3.211 220.730117,2.628 L211.970117,1.168 C209.927117,0.876 208.175117,2.044 207.591117,3.795 C206.715117,3.795 205.839117,3.503 204.963117,3.503 C204.963117,1.752 203.212117,7.10542736e-15 201.168117,7.10542736e-15 L192.117117,7.10542736e-15 C190.073117,7.10542736e-15 188.321117,1.46 188.321117,3.503 C187.445117,3.503 186.569117,3.503 185.693117,3.795 C185.401117,2.044 183.358117,0.875 181.313117,1.168 L172.555117,2.628 C170.511117,2.92 169.051117,4.671 169.343117,6.715 C168.467117,7.007 167.591117,7.007 167.007117,7.299 C166.423117,5.547 164.087117,4.671 162.336117,5.255 L153.868117,8.175 C151.825117,8.759 150.948117,10.803 151.533117,12.555 C150.657117,12.847 150.073117,13.138 149.197117,13.722 C148.321117,11.971 145.985117,11.679 144.233117,12.555 L136.643117,16.935 C134.890117,18.102 134.306117,20.145 135.183117,21.898 C134.598117,22.482 133.723117,22.774 133.139117,23.358 C131.971117,21.898 129.635117,21.898 127.883117,23.065 L121.168117,28.905 C119.708117,30.365 119.416117,32.409 120.584117,34.16 L118.832117,35.912 C117.372117,34.744 115.036117,35.036 113.577117,36.496 L107.737117,43.211 C106.277117,44.671 106.569117,47.007 108.029117,48.467 C107.445117,49.051 107.153117,49.927 106.569117,50.511 C104.817117,49.635 102.774117,50.219 101.606117,51.971 L97.2261168,59.561 C96.0581168,61.314 96.6421168,63.649 98.3941168,64.525 L98.6861168,64.525 C98.3941168,65.401 98.1021168,65.985 97.5181168,66.861 L97.2261168,66.861 C95.4741168,66.277 93.4311168,67.153 92.5551168,69.197 L89.6351168,77.664 C89.0511168,79.708 89.9271168,81.752 91.6791168,82.336 L91.9711168,82.336 C91.6791168,83.211 91.6791168,83.796 91.3871168,84.671 L91.0951168,84.671 C89.0511168,84.379 87.2991168,85.839 87.0071168,87.883 L85.5471168,96.643 C85.5471168,97.226 85.5471168,98.102 85.8391168,98.686 L94.8901168,98.686 C101.606117,48.175 144.817117,9.343 196.788117,9.343 Z" id="Path" fill="#FFFFFF" fill-rule="nonzero"></path>
            <path d="M196.788117,9.343 C144.525117,9.343 101.606117,48.467 95.1821168,98.686 L101.606117,98.686 C108.029117,51.679 148.029117,15.766 196.788117,15.766 C245.548117,15.766 285.548117,51.971 291.971117,98.686 L298.394117,98.686 C291.971117,48.175 249.051117,9.343 196.788117,9.343 Z" id="Path" fill="#FFFFFF" fill-rule="nonzero"></path>
            <path d="M176.058117,62.774 L174.598117,68.904 C172.847117,75.62 171.095117,88.175 170.218117,98.394 L193.868117,98.394 L193.868117,21.898 C186.861117,32.701 179.854117,49.343 176.058117,62.774 Z M217.810117,62.774 C214.014117,49.051 207.007117,32.701 200.000117,22.19 L200.000117,98.686 L223.650117,98.686 C222.774117,88.175 221.022117,75.912 219.270117,69.196 L217.810117,62.774 Z M244.963117,62.774 C237.080117,47.007 224.525117,32.409 207.883117,22.774 C214.306117,33.284 221.313117,50.803 224.233117,62.774 L225.693117,68.904 C227.445117,74.744 229.197117,87.883 230.073117,98.394 L255.474117,98.394 C254.306117,88.175 251.679117,77.372 247.884117,68.904 L244.964117,62.774 L244.963117,62.774 Z" id="Shape" fill="#FFFFFF" fill-rule="nonzero"></path>
            <path d="M272.117117,62.774 C263.357117,49.051 245.839117,32.701 223.941117,25.985 C235.328117,35.328 245.255117,47.591 252.263117,62.774 L254.890117,68.904 C258.102117,76.788 260.730117,87.007 262.190117,97.518 C262.190117,97.81 262.482117,98.102 262.482117,98.394 L285.839117,98.394 C284.379117,88.175 281.168117,77.956 275.912117,68.904 L272.117117,62.774 L272.117117,62.774 Z M169.343117,62.774 C172.263117,50.803 179.562117,33.284 185.693117,22.774 C169.051117,32.409 156.788117,47.007 148.613117,62.774 L145.693117,68.904 C141.898117,77.372 139.270117,88.175 138.103117,98.394 L163.503117,98.394 C164.379117,87.883 166.131117,74.744 167.591117,68.904 L169.343117,62.774 Z" id="Shape" fill="#FFFFFF" fill-rule="nonzero"></path>
            <path d="M141.606117,62.774 C148.613117,47.883 158.248117,35.328 169.926117,25.985 C148.029117,32.701 130.511117,48.759 121.752117,62.774 L117.956117,68.904 C112.993117,77.956 109.781117,88.175 108.321117,98.394 L131.971117,98.394 C133.139117,87.299 136.058117,76.788 139.270117,68.904 L141.606117,62.774 Z" id="Path" fill="#FFFFFF" fill-rule="nonzero"></path>
            <polygon id="Path" fill="#FFFFFF" fill-rule="nonzero" points="1.16788321 134.014394 -1.42108547e-14 111.824613 4.96350365 111.824613 5.25547445 128.75892 14.3065694 111.824613 19.8540146 111.824613 20.1459854 128.75892 29.4890511 111.824613 34.160584 111.824613 21.3138686 134.014394 15.4744526 134.014394 15.4744526 117.664029 6.71532847 134.014394"></polygon>
            <path d="M54.3061168,122.92 C52.5551168,129.635 48.4671168,134.306 40.0001168,134.306 C32.4091168,134.306 30.0731168,130.511 32.1171168,122.628 C34.4521168,113.868 40.0001168,111.241 46.4231168,111.241 C52.2631168,111.533 56.9341168,113.576 54.3061168,122.92 Z M40.8761168,130.51 C45.2561168,130.51 47.8831168,127.3 49.0511168,122.92 C49.9271168,119.708 50.5111168,115.328 45.2551168,115.328 C41.1681168,115.328 38.5401168,118.248 37.0801168,122.92 C35.9121168,127.007 36.2041168,130.51 40.8761168,130.51 L40.8761168,130.51 Z M54.3061168,134.014 L60.4381168,111.824 L71.8251168,111.824 C77.0801168,111.824 79.1241168,113.576 77.6651168,118.54 C76.7881168,121.752 74.7451168,124.087 71.5331168,124.671 L74.4531168,134.014 L69.1971168,134.014 L66.5691168,125.255 L61.0221168,125.255 L58.6861168,134.015 L54.3061168,134.015 L54.3061168,134.014 Z M63.9411168,115.912 L62.4811168,121.46 L68.0291168,121.46 C71.2411168,121.46 72.4091168,120.876 72.9931168,118.54 C73.2851168,117.08 73.8681168,115.912 69.4891168,115.912 L63.9411168,115.912 L63.9411168,115.912 Z M91.9711168,134.014 L86.1311168,134.014 C80.5841168,134.014 77.0811168,132.847 79.4161168,124.964 L83.2121168,111.824 L87.8831168,111.824 L84.3791168,124.087 C83.2121168,128.467 82.6281168,130.511 87.5911168,130.511 L93.1391168,130.511 L91.9711168,134.014 Z M94.3061168,134.014 L100.438117,111.824 L110.657117,111.824 C117.957117,111.824 120.000117,115.62 117.957117,123.211 C116.497117,128.175 113.577117,133.722 104.817117,133.722 L94.3071168,133.722 L94.3071168,134.014 L94.3061168,134.014 Z M104.233117,115.62 L100.146117,129.927 L105.401117,129.927 C109.197117,129.927 110.949117,129.051 112.701117,122.627 C114.161117,117.664 113.868117,115.328 109.197117,115.328 L104.233117,115.328 L104.233117,115.62 L104.233117,115.62 Z M129.927117,134.014 L136.058117,111.824 L147.445117,111.824 C151.241117,111.824 155.620117,112.117 153.868117,117.956 C153.285117,120 151.825117,121.752 149.197117,122.92 C150.657117,123.795 151.825117,124.963 151.241117,127.883 C149.781117,132.847 146.277117,134.014 142.190117,134.014 L129.927117,134.014 L129.927117,134.014 Z M139.854117,115.912 L138.394117,120.876 L145.109117,120.876 C146.861117,120.876 148.321117,120.292 148.905117,118.248 C149.489117,116.496 148.613117,115.62 146.569117,115.62 L139.854117,115.912 L139.854117,115.912 Z M135.766117,129.927 L142.482117,129.927 C143.942117,129.927 145.693117,129.635 146.277117,127.299 C146.861117,125.547 145.985117,124.671 143.941117,124.671 L137.226117,124.671 L135.766117,129.927 L135.766117,129.927 Z" id="Shape" fill="#FFFFFF" fill-rule="nonzero"></path>
            <polygon id="Path" fill="#FFFFFF" fill-rule="nonzero" points="164.379562 111.824613 158.248175 134.014394 153.284672 134.014394 159.416059 111.824613"></polygon>
            <path d="M184.525117,115.62 L176.935117,115.62 C173.723117,115.62 171.095117,117.372 169.343117,123.795 C167.591117,129.927 169.927117,130.219 173.139117,130.219 L180.729117,130.219 L179.562117,134.014 L171.679117,134.014 C164.671117,134.014 162.336117,130.219 164.379117,123.504 C166.131117,116.788 169.927117,112.117 178.102117,112.117 L185.693117,112.117 L184.525117,115.62 L184.525117,115.62 Z" id="Path" fill="#FFFFFF" fill-rule="nonzero"></path>
            <polygon id="Path" fill="#FFFFFF" fill-rule="nonzero" points="190.364964 124.087387 185.693431 111.824613 190.948905 111.824613 194.160584 120.291766 202.043796 111.824613 207.29927 111.824613 195.328467 124.087387 192.70073 133.722423 188.029197 133.722423"></polygon>
            <path d="M223.942117,115.62 L216.350117,115.62 C213.139117,115.62 210.510117,117.372 208.759117,123.795 C207.007117,129.927 209.343117,130.219 212.263117,130.219 L219.853117,130.219 L218.686117,134.014 L210.803117,134.014 C203.796117,134.014 201.460117,130.219 203.503117,123.504 C205.255117,116.788 209.051117,112.117 217.226117,112.117 L224.817117,112.117 L223.941117,115.62 L223.942117,115.62 Z M236.788117,134.014 L230.948117,134.014 C225.401117,134.014 221.898117,132.847 224.233117,124.964 L228.029117,111.824 L232.701117,111.824 L229.197117,124.087 C228.029117,128.467 227.445117,130.511 232.409117,130.511 L237.956117,130.511 L236.788117,134.014 L236.788117,134.014 Z M261.022117,115.62 L253.431117,115.62 C250.219117,115.62 247.883117,117.372 246.715117,120.876 L259.562117,120.876 L258.394117,124.671 L245.547117,124.671 C244.379117,128.759 245.839117,130.219 249.343117,130.219 L256.934117,130.219 L255.766117,134.014 L247.883117,134.014 C240.876117,134.014 238.540117,130.219 240.583117,123.504 C242.336117,116.788 246.131117,112.117 254.306117,112.117 L261.898117,112.117 L261.022117,115.62 L261.022117,115.62 Z M272.117117,134.014 L278.248117,111.824 L289.635117,111.824 C294.890117,111.824 296.935117,113.576 295.475117,118.54 C294.598117,121.752 292.555117,124.087 289.343117,124.671 L292.263117,134.014 L287.007117,134.014 L284.379117,125.255 L279.124117,125.255 L276.788117,134.015 L272.117117,134.015 L272.117117,134.014 Z M281.752117,115.912 L280.292117,121.46 L285.839117,121.46 C289.051117,121.46 290.219117,120.876 290.803117,118.54 C291.095117,117.08 291.679117,115.912 287.299117,115.912 L281.752117,115.912 Z M316.788117,115.62 L309.197117,115.62 C305.985117,115.62 303.650117,117.372 302.482117,120.876 L315.328117,120.876 L314.160117,124.671 L301.314117,124.671 C300.146117,128.759 301.606117,130.219 305.109117,130.219 L312.701117,130.219 L311.533117,134.014 L303.650117,134.014 C296.642117,134.014 294.306117,130.219 296.350117,123.504 C298.102117,116.788 301.898117,112.117 310.073117,112.117 L317.664117,112.117 L316.788117,115.62 L316.788117,115.62 Z M330.511117,134.014 L324.671117,134.014 C319.124117,134.014 315.621117,132.847 317.956117,124.964 L321.752117,111.824 L326.423117,111.824 L322.920117,124.087 C321.752117,128.467 321.168117,130.511 326.131117,130.511 L331.679117,130.511 L330.511117,134.014 L330.511117,134.014 Z" id="Shape" fill="#FFFFFF" fill-rule="nonzero"></path>
            <polygon id="Path" fill="#FFFFFF" fill-rule="nonzero" points="343.941606 111.824613 337.810219 134.014394 332.846716 134.014394 338.978102 111.824613"></polygon>
            <path d="M364.379117,115.62 L356.789117,115.62 C353.577117,115.62 351.241117,117.372 350.073117,120.876 L362.920117,120.876 L361.752117,124.671 L348.905117,124.671 C347.737117,128.759 349.197117,130.219 352.701117,130.219 L360.291117,130.219 L359.124117,134.014 L351.241117,134.014 C344.233117,134.014 341.898117,130.219 343.941117,123.504 C345.693117,116.788 349.489117,112.117 357.664117,112.117 L365.255117,112.117 L364.379117,115.62 L364.379117,115.62 Z M363.212117,134.014 L366.132117,123.795 C369.051117,112.992 373.431117,111.825 380.438117,111.825 L387.445117,111.825 L386.277117,115.62 L378.686117,115.62 C374.890117,115.62 372.846117,116.788 371.386117,121.168 L384.526117,121.168 L383.358117,124.963 L370.218117,124.963 L367.591117,134.014 L363.211117,134.014 L363.212117,134.014 Z M394.160117,109.489 C396.496117,109.489 398.540117,111.533 398.540117,113.869 C398.540117,116.204 396.496117,118.248 394.160117,118.248 C391.825117,118.248 389.780117,116.204 389.780117,113.868 C389.780117,111.241 391.533117,109.488 394.160117,109.488 L394.160117,109.489 Z M394.160117,110.073 C392.117117,110.073 390.657117,111.825 390.657117,113.868 C390.657117,115.912 392.117117,117.664 394.160117,117.664 C396.204117,117.664 397.664117,115.912 397.664117,113.868 C397.664117,111.825 395.912117,110.073 394.160117,110.073 Z M393.285117,116.204 L392.409117,116.204 L392.409117,111.241 L393.869117,111.241 C394.744117,111.241 395.036117,111.533 395.329117,111.533 C395.620117,111.825 395.912117,112.117 395.912117,112.409 C395.912117,112.992 395.620117,113.576 395.036117,113.576 C395.328117,113.576 395.620117,114.16 395.912117,114.744 C395.912117,115.62 396.204117,115.912 396.204117,115.912 L395.328117,115.912 C395.328117,115.62 395.036117,115.328 395.036117,114.744 C395.036117,114.16 394.744117,113.868 393.868117,113.868 L393.285117,113.868 L393.285117,116.204 L393.285117,116.204 Z M393.285117,113.576 L393.868117,113.576 C394.452117,113.576 395.036117,113.284 395.036117,112.701 C395.036117,112.409 394.744117,111.825 393.868117,111.825 L393.285117,111.825 L393.285117,113.576 Z" id="Shape" fill="#FFFFFF" fill-rule="nonzero"></path>
        </g>
    </g>
</svg>